<svg xmlns="http://www.w3.org/2000/svg" width="24.793" height="24"><path data-name="Path 233" d="M12.39 0h-.008a.387.387 0 00-.059.008h-.027l-.027.009h-.009l-.015.008-.02.009-5.89 2.541a.387.387 0 00-.321.347v.009a.387.387 0 000 .074v7.445L.33 12.895a.387.387 0 00-.256.168l-.006.009a.387.387 0 00-.056.3v7.675a.387.387 0 00.239.328l5.919 2.543a.416.416 0 00.454 0l5.774-2.481 5.772 2.48a.416.416 0 00.454 0l5.921-2.545a.387.387 0 00.24-.384v-7.612a.405.405 0 00-.317-.479l-5.676-2.44V3a.4.4 0 00-.319-.425L12.576.041A.387.387 0 0012.449 0h-.059zm.012.81l.931.4-5.019 2.159-.928-.4zm1.911.821l1.2.516-5.156 2.218a.387.387 0 00-.234.467V7.1l-.317-.478a.387.387 0 00-.5-.132l-.466.234v-2.74zm2.18.937l.93.4-5.021 2.159-.931-.4zm-9.7.989l1.279.549v3.249a.387.387 0 00.561.346l.72-.363.813 1.226a.387.387 0 00.729-.112v-3.13l1.119.478v6.9L6.79 10.456zm11.221 0v6.893l-5.225 2.25V5.8zM6.395 11.129l.931.4-5.022 2.16-.93-.4zm12.007 0l.924.4-5.022 2.16-.924-.4zm-10.095.819l1.2.516-5.157 2.22a.387.387 0 00-.233.387v2.354l-.317-.479a.387.387 0 00-.5-.132l-.467.234V14.3zm12 0l1.2.516-5.159 2.216a.387.387 0 00-.234.378v2.361l-.317-.478a.387.387 0 00-.5-.132l-.466.234V14.3zm-9.821.936l.931.4-5.02 2.163-.93-.4zm12 0l.931.4-5.021 2.159-.931-.4zm-21.7.989l1.279.55v3.249a.387.387 0 00.561.345l.721-.361.836 1.262a.387.387 0 00.711-.215v-3.061l1.12.481v6.9L.783 20.775zm12 0l1.279.55v3.249a.387.387 0 00.561.345l.72-.361.816 1.231a.387.387 0 00.718-.085l.006-.023v-.011a.387.387 0 000-.039.388.388 0 000-.039v-3.048l1.119.481v6.9l-5.225-2.247zm11.226 0v6.9l-5.227 2.247v-6.9zm-12 0v6.9l-5.228 2.249v-6.9zm9.362 4.827a.387.387 0 00-.139.033l-1.5.643a.387.387 0 10.305.712l1.5-.644a.387.387 0 00-.166-.744zm1.04 1.166a.387.387 0 00-.139.032l-2.534 1.052a.389.389 0 10.3.717l2.531-1.055a.387.387 0 00-.159-.745z" fill="#850b5a" fill-rule="evenodd"/></svg>