<svg xmlns="http://www.w3.org/2000/svg" width="28" height="24"><g fill="#4bb543"><path data-name="Path 185" d="M0 18h28v2H0z"/><path data-name="Path 186" d="M0 22h28v2H0z"/><path data-name="Path 187" d="M22 6a2 2 0 102 2 2 2 0 00-2-2z"/><path data-name="Path 188" d="M14 12a4 4 0 114-4 4 4 0 01-4 4zm0-6a2 2 0 102 2 2 2 0 00-2-2z"/><path data-name="Path 189" d="M6 6a2 2 0 102 2 2 2 0 00-2-2z"/><path data-name="Path 190" d="M26 16H2a2.005 2.005 0 01-2-2V2a2.005 2.005 0 012-2h24a2.005 2.005 0 012 2v12a2 2 0 01-2 2zm0-14H2v12h24z"/></g></svg>