<svg xmlns="http://www.w3.org/2000/svg" width="113.334" height="24"><g data-name="Group 70065"><path d="M5.643 23.947v-1.593a.935.935 0 00-1.011-1.009 1.051 1.051 0 00-.9.451.932.932 0 00-.852-.451.86.86 0 00-.745.372v-.323H1.57v2.549h.559V22.54c0-.451.24-.664.612-.664s.559.239.559.664v1.407h.559V22.54a.588.588 0 01.612-.664c.373 0 .559.239.559.664v1.407zm8.276-2.553h-.9v-.77h-.559v.77h-.506v.5h.506v1.168c0 .584.239.929.878.929a1.491 1.491 0 00.692-.186l-.16-.478a.877.877 0 01-.479.133c-.266 0-.373-.159-.373-.425v-1.132h.9zm4.737-.053a.751.751 0 00-.665.372v-.319h-.559v2.549h.559v-1.429c0-.425.186-.664.532-.664a1.56 1.56 0 01.346.053l.16-.531a1.763 1.763 0 00-.373-.027zm-7.159.265a1.83 1.83 0 00-1.038-.265c-.639 0-1.065.319-1.065.823 0 .425.319.664.878.743l.266.027c.293.053.452.133.452.265 0 .186-.213.319-.585.319a1.471 1.471 0 01-.852-.265l-.266.425a1.885 1.885 0 001.091.319c.745 0 1.171-.345 1.171-.823 0-.451-.346-.69-.878-.77l-.266-.027c-.239-.027-.426-.08-.426-.239 0-.186.186-.292.479-.292a1.922 1.922 0 01.8.212zm14.85-.265a.751.751 0 00-.665.372v-.319h-.559v2.549h.559v-1.429c0-.425.186-.664.532-.664a1.56 1.56 0 01.346.053l.16-.531a1.763 1.763 0 00-.373-.027zm-7.132 1.327a1.277 1.277 0 001.357 1.327 1.326 1.326 0 00.9-.292l-.266-.451a1.077 1.077 0 01-.663.242.755.755 0 01-.772-.823.784.784 0 01.772-.821 1.077 1.077 0 01.665.239l.266-.451a1.326 1.326 0 00-.9-.292 1.277 1.277 0 00-1.357 1.327zm5.163 0v-1.274h-.559v.319a.962.962 0 00-.8-.372 1.328 1.328 0 000 2.655.9.9 0 00.8-.372v.319h.559zm-2.049 0a.773.773 0 111.544 0 .773.773 0 11-1.544 0zm-6.68-1.327a1.328 1.328 0 00.027 2.655 1.63 1.63 0 001.038-.345l-.266-.4a1.274 1.274 0 01-.745.265.718.718 0 01-.772-.611h1.89v-.212a1.174 1.174 0 00-1.171-1.354zm0 .478a.622.622 0 01.639.611h-1.332a.673.673 0 01.692-.611zm13.865.85v-2.275h-.559v1.327a.962.962 0 00-.8-.372 1.328 1.328 0 000 2.655.9.9 0 00.8-.372v.319h.559zm-2.049 0a.773.773 0 111.544 0 .773.773 0 11-1.544 0zm-18.682 0v-1.275h-.56v.319a.962.962 0 00-.8-.372 1.328 1.328 0 000 2.655.9.9 0 00.8-.372v.319h.559zm-2.076 0a.773.773 0 111.544 0 .773.773 0 11-1.544 0z" fill="#7f3f98"/><path fill="#ff5f00" d="M11.311 2.044h8.383v15.027h-8.383z"/><path d="M11.843 9.557a9.574 9.574 0 013.646-7.513 9.558 9.558 0 100 15.027 9.535 9.535 0 01-3.646-7.514z" fill="#eb001b"/><path d="M31.004 9.557a9.575 9.575 0 01-15.489 7.514 9.564 9.564 0 000-15.027 9.575 9.575 0 0115.489 7.513z" fill="#f79e1b"/><g data-name="card-schemes"><g data-name="visa"><path d="M76.817.425l-4.832 23.211H66.14L70.973.425zm24.589 14.988l3.077-8.717 1.77 8.717zm6.524 8.223h5.4L108.613.425h-4.985a2.66 2.66 0 00-2.489 1.7l-8.77 21.51h6.138l1.219-3.466h7.5l.708 3.466zm-15.258-7.578c.026-6.126-8.242-6.465-8.187-9.2.018-.832.79-1.718 2.478-1.944a10.772 10.772 0 015.764 1.039l1.024-4.924A15.388 15.388 0 0088.284.003c-5.778 0-9.843 3.153-9.875 7.672-.037 3.342 2.9 5.2 5.114 6.318 2.28 1.138 3.044 1.868 3.033 2.884-.016 1.557-1.818 2.246-3.5 2.273a11.96 11.96 0 01-6-1.467l-1.062 5.086a17.346 17.346 0 006.5 1.232c6.142 0 10.159-3.117 10.177-7.943zM68.466.425l-9.472 23.211h-6.175L48.158 5.111a2.544 2.544 0 00-1.388-2.038 24.01 24.01 0 00-5.766-1.975l.138-.674h9.946a2.748 2.748 0 012.7 2.365l2.458 13.434 6.08-15.8z" fill="#1a1f71" data-name="Group 299"/></g></g></g></svg>