<svg xmlns="http://www.w3.org/2000/svg" width="15.332" height="24"><defs><clipPath id="a"><path data-name="Rectangle 42" fill="#850b5a" d="M0 0h15.332v24H0z"/></clipPath></defs><g data-name="Group 69986" clip-path="url(#a)" fill="#850b5a"><path data-name="Path 94" d="M7.942.688L8.85.72l.724.028.52.056s.492.032.444.412a1.359 1.359 0 000 .316s.121.16-.235.164l-.016.284a.365.365 0 00.176.348s.211.316-.521.316h-.023a1.584 1.584 0 01.064.68.714.714 0 00.152.28l.648.8.356.488.408.588.484.772.408.68.4.731.3.589.34.712.376.868.224.54.288.756a2.009 2.009 0 01.248.74l.036.788v3.7l-.036 1.674v.891l-.018.378a4.056 4.056 0 01-.774 1.8l-.117.243-.459.72-.342.513s-.18.441-.945.531l-.54.089-.441.064-.666.054-.18-.063-.207-.09-.153-.054-.135.027-.2.126-.117.054H6.767a1.31 1.31 0 01-.549-.324.855.855 0 01-.619.291h-.065l-1.581-.082h-.01A.812.812 0 013.425 23s-.512-.02-.656-.216l-.3-.2-.616-.88-.528-.828a4.95 4.95 0 01-.64-2.045v-4.215l.035-2.681a.476.476 0 01.08-.252 3.364 3.364 0 00.408-.992A25.92 25.92 0 012.32 8.05s.7-1.384.869-1.6l.3-.5.54-.832.164-.252.156-.224.66-.8a1.022 1.022 0 00.3-.588 1.19 1.19 0 01.048-.454.182.182 0 00-.2-.236.615.615 0 01-.1.008c-.11 0-.264-.033-.175-.232 0 0 .405-.255.033-.44-.079-.039-.174-.047-.255-.085-.031-.015-.087-.043-.1-.079a.069.069 0 01.021-.068c.014-.014.044-.015.053-.034s-.015-.053-.012-.072a.236.236 0 01.045-.086.483.483 0 00.073-.365S4.7.86 5.169.808L5.578.76l.544-.052.86-.02zm0-.688h-.976l-.86.02h-.049l-.545.055L5.5.077l-.409.048a1.169 1.169 0 00-.856.438.893.893 0 00-.172.592.825.825 0 00-.088.2.749.749 0 00.21.968.8.8 0 00.432.837v.076a.613.613 0 01-.091.125.47.47 0 00-.048.053l-.66.8q-.018.022-.034.045l-.156.224-.011.017-.164.252-.541.833L2.9 5.6l-.287.475c-.2.283-.638 1.136-.9 1.647a26.33 26.33 0 00-1.155 2.732.684.684 0 00-.041.2 3.418 3.418 0 01-.308.666 1.17 1.17 0 00-.177.609L0 14.607v4.219a5.493 5.493 0 00.731 2.393l.017.028.528.828.017.025.616.88a.688.688 0 00.178.175l.231.156a1.519 1.519 0 00.861.36 1.555 1.555 0 00.759.211l1.551.08H5.6a1.469 1.469 0 00.616-.138 1.994 1.994 0 00.372.148.688.688 0 00.179.028h2.548a.688.688 0 00.288-.063l.117-.054a.678.678 0 00.062-.033l.069.03.049.02.18.063a.688.688 0 00.22.037h.056l.666-.054h.043l.441-.064h.013l.526-.087a1.83 1.83 0 001.447-.871l.315-.473.008-.012.459-.72a.7.7 0 00.04-.071l.062-.13a4.657 4.657 0 00.885-2.084.683.683 0 00.011-.1l.018-.378v-.917l.036-1.667v-3.746l-.036-.779a2.481 2.481 0 00-.31-1.007l-.271-.712-.007-.019-.224-.54v-.01l-.378-.87-.01-.023-.34-.712-.006-.012-.3-.589-.01-.019-.4-.731-.015-.026-.408-.68-.007-.012-.484-.772-.018-.027L11.7 4.5l-.009-.013L11.339 4l-.022-.029-.625-.771v-.01a.816.816 0 00.392-.375.851.851 0 00.011-.768.788.788 0 00.076-.125.769.769 0 00.047-.547v-.1a1 1 0 00-.219-.745 1.256 1.256 0 00-.848-.415L9.648.064 9.6.061 8.877.032 7.966 0h-.024"/><path data-name="Path 95" d="M9.829 1.877a.346.346 0 01-.116-.02l-.193-.069h-.403l-.368.037a.334.334 0 01-.067 0l-.421-.039-.285-.033h-.024l-.244-.045-.244.045h-.027l-.335.036H5.701l-.371.078a.344.344 0 01-.071.007h-.264a.336.336 0 01-.069-.007l-.242-.05a.344.344 0 01.139-.673l.208.043h.193l.371-.078a.344.344 0 01.071-.007h1.379l.3-.032.293-.055a.344.344 0 01.126 0l.295.055.266.031.38.035.352-.036h.52a.344.344 0 01.116.02l.175.062.37-.041a.345.345 0 01.183.03l.047.018a.344.344 0 110 .688h-.086a.344.344 0 01-.145-.032l-.02-.009-.353.039h-.038"/><path data-name="Path 96" d="M10.436 2.783h-.018c-.283-.014-.57-.033-.847-.051a26.137 26.137 0 00-1.86-.077c-.579 0-1.172.027-1.745.05-.335.013-.669.027-1 .036a.344.344 0 01-.02-.687c.332-.01.664-.023 1-.036.579-.023 1.178-.047 1.768-.05.641 0 1.286.038 1.909.079.275.018.559.037.837.051a.344.344 0 01-.017.687"/><path data-name="Path 97" d="M6.466 9.855a1.192 1.192 0 01.918.413 4.491 4.491 0 002.21 1.283 8.856 8.856 0 00.958.051 3.383 3.383 0 002.08-.5l1.341-.973.388 1a6.183 6.183 0 01-2.6 1.225 8.763 8.763 0 01-1.211.086 4.232 4.232 0 01-3.081-1c-.474-.511-.761-.74-1.093-.74a3.387 3.387 0 00-1.443.683c-1.383.856-1.7 1.068-1.7 1.068a3.793 3.793 0 01-1.855.717 1.247 1.247 0 01-.663-.174v-.742a1.913 1.913 0 00.652.1 2.586 2.586 0 001.538-.529 24.7 24.7 0 012.082-1.369 2.741 2.741 0 011.477-.6m0-.688a3.329 3.329 0 00-1.865.716c-.208.121-1.06.627-2.1 1.384a1.908 1.908 0 01-1.133.4 1.366 1.366 0 01-.4-.055.658.658 0 00-.261-.054.678.678 0 00-.676.7v.742a.688.688 0 00.328.586 1.924 1.924 0 001.022.275 4.357 4.357 0 002.249-.84c.063-.041.449-.294 1.667-1.048l.034-.021a4.389 4.389 0 011.048-.559c.018 0 .129.025.589.52a4.905 4.905 0 003.585 1.219 9.391 9.391 0 001.307-.092 6.853 6.853 0 002.939-1.375.688.688 0 00.2-.78l-.388-1a.688.688 0 00-1.045-.307l-1.34.973a.693.693 0 00-.062.05 2.759 2.759 0 01-1.614.317 8.4 8.4 0 01-.844-.042 3.835 3.835 0 01-1.808-1.068 1.88 1.88 0 00-1.429-.64"/><path data-name="Path 98" d="M8.573 22.062a51.878 51.878 0 01-7.031-.53.344.344 0 01.093-.681 40.536 40.536 0 0011.935.151.344.344 0 01.107.679 32.583 32.583 0 01-5.105.381"/></g></svg>