<svg xmlns="http://www.w3.org/2000/svg" width="12.8" height="24.8" viewBox="0 0 12.8 24.8">
  <g id="Adhari" transform="translate(-2903.961 3652)">
    <path id="bottle-water-solid" d="M36.125-.4h3.75A1.527,1.527,0,0,1,41.4,1.125V3.4H34.6V1.125A1.527,1.527,0,0,1,36.125-.4Zm4.475,3V1.125A.726.726,0,0,0,39.875.4h-3.75a.726.726,0,0,0-.725.725V2.6ZM35.877,4.1h4.247a4.322,4.322,0,0,1,1.814.4l1.152.543A2.368,2.368,0,0,1,44.4,7.111a2.269,2.269,0,0,1-.674,1.622,2.625,2.625,0,0,1-.1,3.621,2.7,2.7,0,0,1,.777,1.854,2.667,2.667,0,0,1-.777,1.918,2.649,2.649,0,0,1,0,3.75A2.65,2.65,0,0,1,41.75,24.4h-7.5a2.65,2.65,0,0,1-1.873-4.525,2.651,2.651,0,0,1,0-3.75,2.67,2.67,0,0,1-.776-1.918,2.7,2.7,0,0,1,.777-1.854,2.627,2.627,0,0,1-.1-3.621,2.286,2.286,0,0,1,.645-3.691L34.061,4.5A4.317,4.317,0,0,1,35.877,4.1Zm6.862,1.665L41.6,5.227A3.515,3.515,0,0,0,40.123,4.9H35.877a3.51,3.51,0,0,0-1.476.328l-1.143.539a1.484,1.484,0,0,0-.161,2.6l.488.306-.457.351a1.827,1.827,0,0,0-.728,1.431,1.742,1.742,0,0,0,.81,1.531l.519.309-.487.357a1.967,1.967,0,0,0-.843,1.553,1.863,1.863,0,0,0,.827,1.584l.5.333-.5.333a1.85,1.85,0,0,0,0,3.084l.5.333-.5.333A1.85,1.85,0,0,0,34.25,23.6h7.5a1.849,1.849,0,0,0,1.021-3.391l-.5-.334.5-.334a1.848,1.848,0,0,0,0-3.083l-.5-.334.5-.334a1.859,1.859,0,0,0,.828-1.584,1.962,1.962,0,0,0-.844-1.552l-.49-.358.522-.309a1.738,1.738,0,0,0,.812-1.531,1.825,1.825,0,0,0-.729-1.431l-.459-.351L42.9,8.37a1.474,1.474,0,0,0,.7-1.259A1.552,1.552,0,0,0,42.738,5.765ZM35.75,10.1h4.5a1.15,1.15,0,1,1,0,2.3h-4.5a1.15,1.15,0,1,1,0-2.3Zm4.5,1.5a.35.35,0,0,0,0-.7h-4.5a.35.35,0,0,0,0,.7Zm-4.5,4.5h4.5a1.15,1.15,0,1,1,0,2.3h-4.5a1.15,1.15,0,1,1,0-2.3Zm4.5,1.5a.35.35,0,0,0,0-.7h-4.5a.35.35,0,0,0,0,.7Z" transform="translate(2872.361 -3651.6)" fill="#850b5a"/>
  </g>
</svg>
