<svg xmlns="http://www.w3.org/2000/svg" width="164.366" height="50"><path d="M164.366 43.24a6.757 6.757 0 01-6.755 6.757H6.757A6.758 6.758 0 010 43.24V6.757A6.758 6.758 0 016.757 0h150.854a6.757 6.757 0 016.755 6.757V43.24z"/><path d="M34.05 24.625a7.53 7.53 0 013.591-6.325 7.715 7.715 0 00-6.082-3.289c-2.558-.269-5.04 1.531-6.341 1.531-1.33 0-3.336-1.5-5.5-1.461a8.1 8.1 0 00-6.815 4.158c-2.948 5.1-.748 12.6 2.074 16.721 1.412 2.021 3.063 4.275 5.223 4.2 2.114-.087 2.9-1.348 5.452-1.348 2.527 0 3.268 1.348 5.471 1.295 2.267-.034 3.7-2.028 5.059-4.066a16.593 16.593 0 002.313-4.713 7.286 7.286 0 01-4.447-6.7m-4.159-12.333a7.418 7.418 0 001.7-5.316 7.548 7.548 0 00-4.887 2.528 7.066 7.066 0 00-1.743 5.12 6.253 6.253 0 004.932-2.332m34.767 27.566h-2.953l-1.618-5.084h-5.622l-1.54 5.084h-2.876l5.572-17.306h3.441zM59.6 32.645l-1.463-4.518c-.153-.463-.447-1.551-.872-3.261h-.054q-.257 1.1-.821 3.261l-1.438 4.518zm19.361.824a7.059 7.059 0 01-1.73 5.03 5.075 5.075 0 01-3.847 1.644 3.851 3.851 0 01-3.564-1.771v6.552h-2.772V31.486a87 87 0 00-.1-4.1h2.438l.156 1.979h.051a4.934 4.934 0 017.9-.493 6.906 6.906 0 011.475 4.6m-2.824.1a5.147 5.147 0 00-.822-3.006 2.844 2.844 0 00-2.415-1.231 2.883 2.883 0 00-1.86.681 3.152 3.152 0 00-1.091 1.786 3.628 3.628 0 00-.129.843v2.079a3.345 3.345 0 00.835 2.3 2.763 2.763 0 002.169.935 2.837 2.837 0 002.438-1.206 5.3 5.3 0 00.874-3.184m17.169-.1a7.07 7.07 0 01-1.728 5.03 5.081 5.081 0 01-3.85 1.644 3.85 3.85 0 01-3.562-1.771v6.552H81.4V31.486c0-1.337-.035-2.7-.1-4.1h2.438l.154 1.979h.052a4.934 4.934 0 017.9-.493 6.913 6.913 0 011.475 4.6m-2.825.1a5.147 5.147 0 00-.823-3.006 2.836 2.836 0 00-2.411-1.231 2.884 2.884 0 00-1.862.681 3.16 3.16 0 00-1.092 1.786 3.672 3.672 0 00-.13.843v2.079a3.348 3.348 0 00.835 2.3 2.783 2.783 0 002.17.935 2.832 2.832 0 002.439-1.206 5.31 5.31 0 00.874-3.184m18.866 1.438a4.623 4.623 0 01-1.537 3.6 6.83 6.83 0 01-4.714 1.514 8.229 8.229 0 01-4.483-1.078l.641-2.311a7.721 7.721 0 004.006 1.08 3.765 3.765 0 002.438-.708 2.3 2.3 0 00.875-1.886 2.411 2.411 0 00-.719-1.77 6.676 6.676 0 00-2.387-1.337q-4.547-1.693-4.546-4.957a4.363 4.363 0 011.6-3.489 6.336 6.336 0 014.25-1.362 8.393 8.393 0 013.927.821l-.695 2.259a6.873 6.873 0 00-3.325-.8 3.383 3.383 0 00-2.3.723 2.054 2.054 0 00-.695 1.566 2.117 2.117 0 00.8 1.693 8.988 8.988 0 002.516 1.337 8.51 8.51 0 013.285 2.1 4.385 4.385 0 011.058 3m9.196-5.54h-3.058v6.06q0 2.313 1.617 2.31a4.925 4.925 0 001.232-.128l.078 2.1a6.286 6.286 0 01-2.156.306 3.329 3.329 0 01-2.569-1 4.911 4.911 0 01-.924-3.364v-6.29h-1.818v-2.081h1.818v-2.286l2.723-.822v3.108h3.058zm13.759 4.061a6.835 6.835 0 01-1.643 4.724 5.86 5.86 0 01-4.569 1.9 5.587 5.587 0 01-4.379-1.82 6.641 6.641 0 01-1.63-4.6 6.793 6.793 0 011.681-4.75 5.829 5.829 0 014.532-1.846 5.7 5.7 0 014.415 1.822 6.557 6.557 0 011.592 4.567m-2.873.063a5.578 5.578 0 00-.743-2.941 2.744 2.744 0 00-2.492-1.489 2.782 2.782 0 00-2.542 1.489 5.654 5.654 0 00-.744 2.995 5.551 5.551 0 00.744 2.944 2.844 2.844 0 005.013-.022 5.64 5.64 0 00.764-2.975m11.891-3.759a4.785 4.785 0 00-.874-.078 2.618 2.618 0 00-2.259 1.1 4.155 4.155 0 00-.693 2.466v6.547h-2.773v-8.551q0-2.154-.081-3.927h2.415l.1 2.389h.077a4.289 4.289 0 011.386-1.978 3.346 3.346 0 012-.669 4.6 4.6 0 01.695.051zm12.399 3.208a6.5 6.5 0 01-.1 1.255h-8.317a3.616 3.616 0 001.206 2.828 4.118 4.118 0 002.72.873 9.148 9.148 0 003.364-.592l.435 1.925a10.411 10.411 0 01-4.184.769 6.069 6.069 0 01-4.559-1.7 6.31 6.31 0 01-1.654-4.581 7.149 7.149 0 011.54-4.7 5.316 5.316 0 014.364-2 4.652 4.652 0 014.085 2 6.741 6.741 0 011.1 3.926m-2.644-.72a3.752 3.752 0 00-.538-2.131 2.425 2.425 0 00-2.21-1.157 2.627 2.627 0 00-2.206 1.129 4.141 4.141 0 00-.82 2.159zM58.269 16.361h-1.448l-.795-2.5h-2.763l-.757 2.5h-1.412l2.738-8.5h1.69zm-2.484-3.544l-.719-2.222c-.078-.225-.218-.76-.429-1.6h-.025c-.083.361-.219.9-.4 1.6l-.706 2.222zm9.322-2.586l-2.322 6.128H61.46l-2.245-6.13h1.463l1.047 3.242c.176.538.323 1.056.441 1.551h.036c.1-.445.247-.962.443-1.551l1.032-3.242zm6.183 6.13h-1.225l-.1-.706h-.038a2.1 2.1 0 01-1.789.845 1.863 1.863 0 01-1.4-.555 1.745 1.745 0 01-.477-1.248 1.907 1.907 0 01.94-1.715 4.862 4.862 0 012.642-.579v-.117c0-.805-.424-1.21-1.274-1.21a2.873 2.873 0 00-1.6.454l-.277-.894a3.942 3.942 0 012.107-.529q2.41 0 2.409 2.536v2.258a9.449 9.449 0 00.088 1.461m-1.413-2.106v-.943q-2.258-.038-2.257 1.237a.921.921 0 00.264.72.953.953 0 00.664.238 1.372 1.372 0 00.835-.284 1.161 1.161 0 00.47-.724zM75.088 8.4a.778.778 0 01-.244.594.852.852 0 01-.617.225.778.778 0 01-.572-.231.8.8 0 01-.235-.587.763.763 0 01.241-.58.886.886 0 011.185 0 .76.76 0 01.242.578m-.154 7.96h-1.362v-6.13h1.362zm2.422-8.941h1.361v8.942h-1.361zm8.387 8.943h-1.225l-.1-.706h-.037a2.108 2.108 0 01-1.793.845 1.859 1.859 0 01-1.4-.555 1.744 1.744 0 01-.48-1.248 1.909 1.909 0 01.94-1.715 4.865 4.865 0 012.642-.579v-.117c0-.805-.424-1.21-1.274-1.21a2.858 2.858 0 00-1.6.454l-.279-.894a3.941 3.941 0 012.106-.529q2.41 0 2.409 2.536v2.258a9.372 9.372 0 00.088 1.461m-1.412-2.106v-.943q-2.26-.038-2.258 1.237a.925.925 0 00.263.72.957.957 0 00.665.238 1.373 1.373 0 00.834-.284 1.163 1.163 0 00.47-.724zm9.55-1.048a3.484 3.484 0 01-.856 2.472 2.429 2.429 0 01-1.855.821 2.067 2.067 0 01-1.93-1.084h-.025l-.074.947H87.97c.031-.5.048-1.047.048-1.652V7.421h1.363v3.707a2.114 2.114 0 011.967-1.022 2.25 2.25 0 011.82.853 3.4 3.4 0 01.705 2.251m-1.384.05a2.455 2.455 0 00-.407-1.463 1.449 1.449 0 00-2.105-.291 1.587 1.587 0 00-.541.872 1.781 1.781 0 00-.05.428v1.071a1.526 1.526 0 00.419 1.085 1.389 1.389 0 001.057.454 1.4 1.4 0 001.2-.58 2.588 2.588 0 00.43-1.575m3.405-5.843h1.364v8.942h-1.364zm8.834 5.588a3.357 3.357 0 01-.051.617h-4.087a1.778 1.778 0 00.59 1.387 2.025 2.025 0 001.339.431 4.463 4.463 0 001.651-.291l.212.948a5.129 5.129 0 01-2.054.378 2.983 2.983 0 01-2.24-.838 3.1 3.1 0 01-.813-2.252 3.5 3.5 0 01.759-2.308 2.61 2.61 0 012.142-.983 2.29 2.29 0 012.007.983 3.287 3.287 0 01.545 1.929m-1.3-.353a1.86 1.86 0 00-.264-1.047 1.2 1.2 0 00-1.086-.569 1.3 1.3 0 00-1.087.555 2.066 2.066 0 00-.4 1.06zm12.561.591a3.356 3.356 0 01-.808 2.321 2.883 2.883 0 01-2.245.934 2.738 2.738 0 01-2.15-.9 3.264 3.264 0 01-.8-2.257 3.324 3.324 0 01.828-2.334 2.866 2.866 0 012.225-.907 2.807 2.807 0 012.171.895 3.235 3.235 0 01.78 2.244m-1.414.032a2.739 2.739 0 00-.365-1.446 1.344 1.344 0 00-1.22-.727 1.365 1.365 0 00-1.25.727 3.085 3.085 0 000 2.918 1.38 1.38 0 001.237.73 1.356 1.356 0 001.218-.741 2.723 2.723 0 00.379-1.461m8.752 3.089h-1.362v-3.52q0-1.628-1.236-1.627a1.228 1.228 0 00-.984.448 1.572 1.572 0 00-.378 1.053v3.645h-1.36v-4.377c0-.539-.017-1.123-.049-1.755h1.2l.063.947h.038a1.954 1.954 0 01.706-.73 2.31 2.31 0 011.235-.342 1.959 1.959 0 011.427.557 2.689 2.689 0 01.706 2.03zm8.92-5.11h-1.5v2.979c0 .756.262 1.134.793 1.134a2.332 2.332 0 00.6-.063l.039 1.035a3.057 3.057 0 01-1.059.152 1.637 1.637 0 01-1.259-.491 2.418 2.418 0 01-.457-1.655v-3.09h-.9v-1.02h.9V9.112l1.336-.4v1.524h1.5zm7.202 5.111h-1.362v-3.5c0-1.1-.414-1.652-1.236-1.652a1.3 1.3 0 00-1.3.959 1.669 1.669 0 00-.064.492v3.7h-1.362V7.421h1.362v3.682h.025a2.064 2.064 0 011.84-1 1.9 1.9 0 011.4.555 2.8 2.8 0 01.692 2.056zm7.017-3.357a3.127 3.127 0 01-.051.617h-4.086a1.774 1.774 0 00.591 1.387 2.013 2.013 0 001.335.431 4.437 4.437 0 001.65-.291l.216.948a5.149 5.149 0 01-2.058.378 2.984 2.984 0 01-2.239-.838 3.1 3.1 0 01-.814-2.252 3.512 3.512 0 01.758-2.308 2.611 2.611 0 012.142-.983 2.284 2.284 0 012.007.983 3.273 3.273 0 01.549 1.929m-1.3-.353a1.865 1.865 0 00-.264-1.047 1.194 1.194 0 00-1.085-.569 1.3 1.3 0 00-1.086.555 2.03 2.03 0 00-.4 1.06z" fill="#fff"/></svg>