<svg xmlns="http://www.w3.org/2000/svg" width="135" height="134.95"><g fill="#0e3626"><path d="M67.203.003v.014a3.549 3.549 0 00-1.927.707L47.493 14.075H14.312v24.867L2.194 48.021a3.549 3.549 0 00-2 4.449 3.549 3.549 0 00-.082.833v78.024q0 .166.014.332v.014q.02.168.055.333v.013q.034.168.083.333v.013q.055.163.125.319v.013q.069.156.152.305v.013q.09.151.194.292v.013q.1.136.208.263v.014q.119.131.25.249a3.549 3.549 0 002.467 1.012h127a3.549 3.549 0 004.3-4.006V53.303a3.548 3.548 0 00-.263-1.386v-.014a3.549 3.549 0 00-1.76-3.742l-12.174-9.108V14.075h-3.3q-.125-.011-.25-.014H87.371L69.532.713a3.549 3.549 0 00-2.329-.71zm.222 8l8.109 6.071h-16.2zM21.406 21.172h92.26v36.856l-.263.167-.208.124-45.783 28.596-46.006-28.679V40.713zm-7.094 26.655v5.988l-4.369-2.712zm106.454.1l4.13 3.091-.61.375-3.521 2.2zm7.1 9.592v67.226l-37.029-24.742a3.549 3.549 0 00-2.01-.638v.014a3.549 3.549 0 00-1.94 6.528l32.74 21.859H15.376l32.782-21.863a3.549 3.549 0 10-3.936-5.9l-37.01 24.684V57.752l7.1 4.421 1.677 1.04 48.923 30.508.6.375.263.166h.013a3.713 3.713 0 001.719.374h.055l.125-.013q.083-.005.166-.014l.07-.013q.175-.026.346-.07t.333-.1q.141-.049.277-.111l.055-.028.055-.028h.07l51.7-32.3v-.013z"/><path d="M59.728 68.799a3.5 3.5 0 01-2.475-1.025L44.301 54.822a3.5 3.5 0 010-4.95 3.5 3.5 0 014.95 0l10.477 10.477 26.02-26.02a3.5 3.5 0 014.95 0 3.5 3.5 0 010 4.95L62.203 67.774a3.5 3.5 0 01-2.475 1.025z"/></g></svg>