<svg xmlns="http://www.w3.org/2000/svg" width="24" height="24"><path data-name="Rectangle 11" fill="none" d="M0 0h24v24H0z"/><path data-name="Union 5" d="M7.821 21.999a3.917 3.917 0 01-4.386-4.941l.837-6.977a4.813 4.813 0 01.89-2.684 3.559 3.559 0 012.415-1.152V5.02a2.893 2.893 0 013.025-3.021h2.789a2.9 2.9 0 013.025 3.021v1.225a3.559 3.559 0 012.415 1.152 4.878 4.878 0 01.9 2.684l.838 6.977a3.927 3.927 0 01-4.386 4.941zM5.659 10.244l-.838 6.979a2.573 2.573 0 003 3.38h8.361a3.231 3.231 0 002.5-.8 3.117 3.117 0 00.52-2.425H8.275a.7.7 0 110-1.4h10.758l-.688-5.732c-.162-1.359-.275-2.328-1.928-2.595v.624a.7.7 0 01-1.4 0v-.7H8.969v.7a.7.7 0 01-1.4 0v-.624c-1.647.269-1.756 1.238-1.91 2.594zm9.361-4.061V5.02a1.509 1.509 0 00-1.629-1.626h-2.789a1.51 1.51 0 00-1.63 1.626v1.163z" fill="#0e3626"/></svg>