<svg xmlns="http://www.w3.org/2000/svg" width="48" height="48"><path data-name="Rectangle 11" fill="none" d="M0 0h48v48H0z"/><path data-name="Path 144" d="M35.8 38.146a2.3 2.3 0 002.346-2.346c0-2.345-2.345-9.382-14.073-9.382S10 33.455 10 35.8a2.3 2.3 0 002.345 2.345zm-23.443-2.214zm.043-.132h23.348l.033-.005.019-.005a6.262 6.262 0 00-1.951-3.9c-1.529-1.528-4.407-3.123-9.776-3.123s-8.247 1.592-9.773 3.121a6.28 6.28 0 00-1.951 3.9zm23.394.131zm-11.718-14.2a4.691 4.691 0 10-4.691-4.691 4.691 4.691 0 004.688 4.687zm7.036-4.691A7.036 7.036 0 1124.073 10a7.036 7.036 0 017.036 7.036z" fill="#6d114a" fill-rule="evenodd"/></svg>