<svg xmlns="http://www.w3.org/2000/svg" width="24" height="24"><path data-name="Rectangle 11" fill="none" d="M0 0h24v24H0z"/><path data-name="Union 4" d="M14.324 21.754H2.699a.7.7 0 010-1.4h.188l.046-10.5a2.579 2.579 0 01.979-2l6.512-5.071a2.573 2.573 0 013.143 0l1.071.834h3.842a.7.7 0 01.7.689l.026 2.793v.066l.878.68a2.54 2.54 0 01.986 2.021v10.492h.232a.7.7 0 010 1.4zm-1.394-6.047a2.1 2.1 0 012.09 2.094v2.556h4.652V9.865a1.159 1.159 0 00-.444-.918l-5.187-4.03a.566.566 0 01-.155-.12l-1.173-.912a1.174 1.174 0 00-1.431 0L4.773 8.954a1.18 1.18 0 00-.45.911l-.041 10.492h4.69v-2.556a2.1 2.1 0 012.094-2.094zm-2.56 2.094v2.556h3.255v-2.556a.7.7 0 00-.7-.7h-1.863a.7.7 0 00-.691.7zm7.43-11.73l-.009-1.062h-1.356zm-3.477 8.008a1.63 1.63 0 01-1.628-1.629v-1.394a1.629 1.629 0 011.628-1.626h1.86a1.63 1.63 0 011.629 1.626v1.394a1.63 1.63 0 01-1.629 1.629zm-.234-3.022v1.394a.236.236 0 00.234.234h1.86a.235.235 0 00.233-.234v-1.394a.235.235 0 00-.233-.231h-1.86a.236.236 0 00-.233.23zm-6.276 3.022a1.628 1.628 0 01-1.629-1.629v-1.394A1.627 1.627 0 017.813 9.43h1.859a1.63 1.63 0 011.629 1.626v1.394a1.63 1.63 0 01-1.629 1.629zm-.234-3.022v1.394a.236.236 0 00.234.234h1.859a.235.235 0 00.233-.234v-1.394a.235.235 0 00-.233-.231H7.813a.235.235 0 00-.234.23z" fill="#0e3626"/></svg>