<svg xmlns="http://www.w3.org/2000/svg" width="9.746" height="24"><defs><clipPath id="a"><path data-name="Rectangle 48" fill="#850b5a" d="M0 0h9.746v24H0z"/></clipPath></defs><g data-name="Group 69993" clip-path="url(#a)" fill="#850b5a"><path data-name="Path 107" d="M.803 23.997a.811.811 0 01-.8-.8v-1.67a.811.811 0 01.8-.8h8.143a.811.811 0 01.8.8v1.963h-.078a.812.812 0 01-.741.513zm8.14-2.7H.803a.233.233 0 00-.226.23v1.67a.233.233 0 00.23.227h8.117a.233.233 0 00.227-.23v-.283h.023v-1.384a.233.233 0 00-.23-.226"/><path data-name="Path 108" d="M.803 21.323a.811.811 0 01-.8-.8v-1.676a.811.811 0 01.8-.8h8.143a.811.811 0 01.8.8v1.963h-.078a.812.812 0 01-.741.513zm8.14-2.7H.803a.233.233 0 00-.226.23v1.67a.233.233 0 00.23.227h8.117a.233.233 0 00.227-.23v-.283h.023V18.85a.233.233 0 00-.23-.227"/><path data-name="Path 109" d="M.79 18.645a.792.792 0 01-.787-.779v-1.695a.811.811 0 01.8-.8h8.143a.811.811 0 01.8.8v1.963h-.078a.812.812 0 01-.741.513H.79m8.153-2.7H.803a.233.233 0 00-.226.23v1.682a.218.218 0 00.218.215h8.129a.233.233 0 00.227-.23v-.283h.023v-1.387a.23.23 0 00-.23-.227"/><path data-name="Path 110" d="M.79 15.968a.792.792 0 01-.787-.779v-1.695a.811.811 0 01.8-.8h8.143a.811.811 0 01.8.8v1.963h-.078a.811.811 0 01-.741.513H.79m8.153-2.7H.803a.233.233 0 00-.226.23v1.682a.216.216 0 00.066.153.206.206 0 00.155.061h8.126a.233.233 0 00.227-.23v-.283h.023v-1.387a.233.233 0 00-.23-.226"/><path data-name="Path 111" d="M.79 13.291a.792.792 0 01-.787-.779v-1.695a.811.811 0 01.8-.8h8.143a.811.811 0 01.8.8v1.963h-.078a.812.812 0 01-.741.513H.79m8.153-2.7H.803a.233.233 0 00-.226.23v1.682a.218.218 0 00.218.215h8.129a.233.233 0 00.227-.23v-.283h.023V10.82a.233.233 0 00-.23-.226"/><path data-name="Path 112" d="M6.377 3.92H3.126V2.231h3.251zM3.7 3.347h2.1v-.542H3.7z"/><path data-name="Path 113" d="M.714 10.618H.7a.728.728 0 01-.7-.753V8.073a13.833 13.833 0 011.29-2.476c1.345-2.251 1.515-2.251 1.7-2.251h3.524c.173 0 .352 0 1.7 2.251A13.833 13.833 0 019.5 8.073v1.745a.729.729 0 01-.644.787h-.057zm.006-.573h8.072a.155.155 0 00.137-.172V8.1a31.722 31.722 0 00-2.5-4.18H3.078a31.748 31.748 0 00-2.5 4.18v1.78a.155.155 0 00.146.161"/><path data-name="Path 114" d="M5.202 24H2.23a.856.856 0 01-.889-.755v-1.759a.838.838 0 01.889-.733h2.972v.573H2.23c-.157 0-.316.1-.316.16v1.763c0 .064.162.182.316.182h2.972z"/><path data-name="Path 115" d="M4.974 21.322H2.185a.863.863 0 01-.841-.735v-1.725a.867.867 0 01.835-.768h2.8v.573H2.185a.29.29 0 00-.271.245v1.605a.289.289 0 00.277.229h2.783z"/><path data-name="Path 116" d="M5.202 18.646H2.23a.818.818 0 01-.889-.733v-1.762a.856.856 0 01.889-.755h2.972v.573H2.23c-.153 0-.316.118-.316.182v1.762c0 .078.162.16.316.16h2.972z"/><path data-name="Path 117" d="M5.202 15.968H2.23a.818.818 0 01-.889-.733v-1.763a.856.856 0 01.889-.755h2.972v.573H2.23c-.153 0-.316.118-.316.182v1.763c0 .078.162.16.316.16h2.972z"/><path data-name="Path 118" d="M5.202 13.291H2.23c-.431 0-.889-.241-.889-.688V10.84a.908.908 0 01.889-.8h2.972v.573H2.23c-.133 0-.316.144-.316.227v1.763c0 .032.14.115.316.115h2.972z"/><path data-name="Path 119" d="M7.272 10.614H4.305v-.573h2.967c.154 0 .316-.118.316-.182v-1.71c-.018-.146-.265-1.05-.606-2.113a10.5 10.5 0 00-.8-2.108.223.223 0 00.157.059v-.573c.224 0 .4 0 1.151 2.318a22.062 22.062 0 01.675 2.409v1.718a.856.856 0 01-.889.755m.316-2.473z"/><path data-name="Path 120" d="M5.202 10.614H2.23a.856.856 0 01-.889-.755V8.141a22.062 22.062 0 01.675-2.409c.751-2.318.927-2.318 1.151-2.318v.571a.223.223 0 00.157-.059 10.5 10.5 0 00-.8 2.108C2.183 7.096 1.936 8 1.918 8.147v1.709c0 .064.162.182.316.182h2.968zM1.919 8.141z"/><path data-name="Rectangle 43" d="M2.074 3.347h5.355v.573H2.074z"/><path data-name="Path 121" d="M7.27 3.028H2.234V1.224A1.249 1.249 0 013.508 0h2.538a1.249 1.249 0 011.223 1.274zm-4.462-.573h3.888V1.269a.676.676 0 00-.662-.7H3.502a.676.676 0 00-.7.662v.027z"/><path data-name="Rectangle 44" d="M2.903 1.849h.573v.892h-.573z"/><path data-name="Rectangle 45" d="M4.019 1.849h.573v.892h-.573z"/><path data-name="Rectangle 46" d="M4.911 1.849h.573v.892h-.573z"/><path data-name="Rectangle 47" d="M6.027 1.849H6.6v.892h-.573z"/></g></svg>