<svg data-name="Special Offers" xmlns="http://www.w3.org/2000/svg" width="17.113" height="24"><defs><clipPath id="a"><path data-name="Rectangle 145" fill="#850b5a" d="M0 0h17.113v24H0z"/></clipPath></defs><path data-name="Path 209" d="M13.291 5.44a.542.542 0 010 .767l-8.672 8.672a.542.542 0 01-.767-.767l8.672-8.672a.542.542 0 01.767 0zM5.536 8.425a1.3 1.3 0 10-1.3-1.3 1.3 1.3 0 001.3 1.3zm0 .867a2.168 2.168 0 10-2.168-2.168 2.168 2.168 0 002.168 2.168zm6.071 5.2a1.3 1.3 0 10-1.3-1.3 1.3 1.3 0 001.3 1.304zm0 .867a2.168 2.168 0 10-2.168-2.168 2.168 2.168 0 002.168 2.172z" fill="#850b5a" fill-rule="evenodd"/><g data-name="Group 70047" clip-path="url(#a)"><path data-name="Path 223" d="M15.645 0H1.468A1.465 1.465 0 000 1.458V24l8.551-4.281.145.072L17.113 24V1.458A1.465 1.465 0 0015.645 0m.31 22.128l-7.4-3.743-7.397 3.743V1.148h14.8z" fill="#850b5a"/></g></svg>