<svg xmlns="http://www.w3.org/2000/svg" width="164.368" height="50"><defs><linearGradient id="b" x1="-29.829" y1="1.258" x2="-29.829" y2="1.175" gradientUnits="objectBoundingBox"><stop offset="0" stop-color="#257cb0"/><stop offset=".286" stop-color="#4a93b5"/><stop offset=".767" stop-color="#78bcbb"/><stop offset="1" stop-color="#89cfbd"/></linearGradient><linearGradient id="c" x1="-23.546" y1="2.465" x2="-23.463" y2="2.465" gradientUnits="objectBoundingBox"><stop offset="0" stop-color="#52c1ad"/><stop offset="1" stop-color="#dee89a"/></linearGradient><linearGradient id="d" x1="-23.505" y1="1.423" x2="-23.505" y2="1.34" gradientUnits="objectBoundingBox"><stop offset="0" stop-color="#ec413d"/><stop offset=".167" stop-color="#da4452"/><stop offset=".575" stop-color="#b0487a"/><stop offset=".862" stop-color="#954a92"/><stop offset="1" stop-color="#8a4a9d"/></linearGradient><linearGradient id="e" x1="-42.139" y1="3.21" x2="-42.139" y2="3.127" gradientUnits="objectBoundingBox"><stop offset="0" stop-color="#f58879"/><stop offset=".119" stop-color="#f69079"/><stop offset=".713" stop-color="#fcb877"/><stop offset="1" stop-color="#fec874"/></linearGradient><clipPath id="a"><path d="M326.02 284.57l-6.893-3.979-13.294-7.677c-.738-.426-1.474-.168-1.474.723v31.275c0 .667.526.955 1.167.585l13.6-7.853 6.893-3.979 6.625-3.824c.777-.45.7-1.065.046-1.418s-6.67-3.853-6.67-3.853z" transform="translate(-304.359 -272.714)" fill="none"/></clipPath></defs><path d="M164.368 43.243A6.757 6.757 0 01157.613 50H6.757A6.757 6.757 0 010 43.243V6.757A6.758 6.758 0 016.757 0h150.856a6.757 6.757 0 016.755 6.757v36.486z"/><g clip-path="url(#a)" transform="translate(14.775 8.052)"><path d="M304.36 271.962v33.86l17.074-16.93z" transform="translate(-304.359 -272.488)" fill="url(#b)"/></g><g clip-path="url(#a)" transform="translate(14.775 8.052)"><path d="M326.02 284.292l-6.892-3.979-14.768-8.527v.123l17.074 16.93z" transform="translate(-304.359 -272.436)" fill="url(#c)"/></g><g clip-path="url(#a)" transform="translate(14.775 8.052)"><path d="M304.36 313.072v.123l14.768-8.527 6.892-3.979-4.586-4.547z" transform="translate(-304.359 -279.738)" fill="url(#d)"/></g><g clip-path="url(#a)" transform="translate(14.775 8.052)"><path d="M333.331 289.647l-4.586 4.548 4.586 4.547 7.877-4.547z" transform="translate(-311.671 -277.791)" fill="url(#e)"/></g><path d="M122.269 32.476a4.261 4.261 0 01-1.757-.355 3.316 3.316 0 01-1.334-1.092h-.107a13.3 13.3 0 01.107 1.636v4.052h-1.491V22.451h1.213l.207 1.348h.071a3.472 3.472 0 011.339-1.168 4.069 4.069 0 011.751-.359 3.64 3.64 0 013.023 1.339 7.131 7.131 0 01-.017 7.525 3.646 3.646 0 01-3.005 1.34zm-.216-8.94a2.643 2.643 0 00-2.183.835 4.3 4.3 0 00-.692 2.66v.332a4.928 4.928 0 00.692 2.97 2.631 2.631 0 002.219.893 2.308 2.308 0 002-1.033 4.9 4.9 0 00.723-2.848 4.721 4.721 0 00-.723-2.826 2.379 2.379 0 00-2.04-.983zm7.757 8.759h-1.491v-13.98h1.491zm8.575 0l-.3-1.4h-.071a4.129 4.129 0 01-1.47 1.253 4.465 4.465 0 01-1.827.328 3.292 3.292 0 01-2.3-.755 2.75 2.75 0 01-.831-2.147q0-2.982 4.77-3.126l1.672-.055v-.611a2.493 2.493 0 00-.5-1.711 2.048 2.048 0 00-1.594-.553 6.489 6.489 0 00-2.785.755l-.459-1.141a7.027 7.027 0 011.6-.62 6.894 6.894 0 011.738-.225 3.753 3.753 0 012.61.781 3.266 3.266 0 01.849 2.507v6.72h-1.1zm-3.369-1.052a3.027 3.027 0 002.187-.763 2.827 2.827 0 00.8-2.139v-.889l-1.492.062a5.426 5.426 0 00-2.565.553 1.667 1.667 0 00-.786 1.523 1.535 1.535 0 00.49 1.231 2.032 2.032 0 001.366.422zm5.34-8.795h1.6l2.157 5.616a21.4 21.4 0 01.881 2.776h.072q.117-.459.489-1.568t2.439-6.824h1.6l-4.233 11.213a5.6 5.6 0 01-1.469 2.36 3.127 3.127 0 01-2.061.7 6.023 6.023 0 01-1.349-.153v-1.194a5.23 5.23 0 001.106.108 2.278 2.278 0 002.192-1.725l.548-1.4zm-45.716.915a3.356 3.356 0 01-.268 5.706 1.45 1.45 0 00-.577 1.01 1.13 1.13 0 00.536.885l.741.576c.906.762 1.729 1.463 1.729 2.885 0 1.936-1.874 3.892-5.417 3.892-2.987 0-4.428-1.421-4.428-2.946a2.962 2.962 0 011.586-2.512 8.873 8.873 0 013.934-.948 2.156 2.156 0 01-.618-1.4 1.853 1.853 0 01.206-.8 7.437 7.437 0 01-.66.041 3.255 3.255 0 01-3.418-3.233 3.7 3.7 0 011.317-2.76 5.62 5.62 0 013.689-1.133h4.242l-1.318.741H94.64zm-1.463 9.146a3.172 3.172 0 00-.473-.022 8.233 8.233 0 00-2.163.331 2.312 2.312 0 00-1.771 2.121c0 1.461 1.422 2.514 3.626 2.514 1.977 0 3.028-.949 3.028-2.225-.001-1.053-.681-1.607-2.246-2.719zm.6-3.914a2.085 2.085 0 00.513-1.5c0-1.483-.885-3.789-2.594-3.789a1.923 1.923 0 00-1.442.68 2.378 2.378 0 00-.454 1.524c0 1.379.8 3.666 2.575 3.666a2.11 2.11 0 001.401-.577zm-12.103 3.584a4.852 4.852 0 01-5.017-4.854 5.1 5.1 0 015.326-5 4.808 4.808 0 014.914 4.853 5.025 5.025 0 01-5.223 5.001zm2.57-1.666a3.72 3.72 0 00.618-2.283c0-1.81-.863-5.264-3.413-5.264a2.864 2.864 0 00-1.851.7 3.113 3.113 0 00-.947 2.509c0 2.034 1.008 5.385 3.5 5.385a2.627 2.627 0 002.093-1.047zm-13.716 1.666a4.852 4.852 0 01-5.017-4.854 5.1 5.1 0 015.326-5 4.808 4.808 0 014.914 4.853 5.024 5.024 0 01-5.223 5.001zm2.571-1.666a3.729 3.729 0 00.617-2.283c0-1.81-.864-5.264-3.414-5.264a2.864 2.864 0 00-1.851.7 3.112 3.112 0 00-.946 2.509c0 2.034 1.008 5.385 3.5 5.385a2.63 2.63 0 002.095-1.047zm-9.159 1.343l-2.957.683a21.936 21.936 0 01-3.411.35c-5.706 0-7.876-4.2-7.876-7.484 0-4.01 3.079-7.731 8.352-7.731a11.91 11.91 0 013.162.434 8.053 8.053 0 012.729 1.282l-1.716 1.628-.723.165.517-.827a5.909 5.909 0 00-4.424-1.942c-3.267 0-5.727 2.481-5.727 6.1a7.311 7.311 0 007.318 7.545 6.145 6.145 0 002.626-.517v-3.324l-3.121.165 1.654-.89h4.383l-.537.517a.482.482 0 00-.207.33c-.022.187-.041.787-.041.994v2.523z" fill="#f9f9f9"/><path d="M101.176 31.261c-.683-.062-.826-.186-.826-.993v-11.7c0-.045.006-.09.01-.134.084-.723.29-.847.932-1.22h-2.958l-1.551.744h1.58v12.766c0 .412-.082.475-.558 1.1h3.66l.765-.454c-.351-.047-.703-.068-1.054-.109zm8.411.19c-.225.123-.451.267-.676.37a4.79 4.79 0 01-1.993.39 4.392 4.392 0 01-2.731-.8 5.315 5.315 0 01-2.093-4.333 4.653 4.653 0 014.7-4.742 3.988 3.988 0 012.115.576 3.4 3.4 0 011.435 2.032l-4.824 1.951-1.581.123c.513 2.607 2.278 4.125 4.229 4.125a5.3 5.3 0 002.5-.717zm-1.929-6.12c.389-.143.594-.267.594-.554a2.037 2.037 0 00-2.033-1.766 2.529 2.529 0 00-2.361 2.854c0 .349.041.718.062 1.089zm3.911-2.855v1.355h-.165v-1.355h-.448v-.141h1.061v.141zm1.847 1.355v-1.367h-.007l-.417 1.367h-.131l-.421-1.367h-.006v1.367h-.149v-1.5h.256l.381 1.209h.006l.375-1.209h.259v1.5z" fill="#f9f9f9"/><path d="M53.802 13.648h-1.027a6.759 6.759 0 00-.293-1.2h-1.483a6.232 6.232 0 00-.3 1.2h-.966q0-.125.749-2.054a16.127 16.127 0 00.75-2.125h1.216a17.656 17.656 0 00.679 2.094 18.356 18.356 0 01.675 2.085zm-1.483-1.813a18.018 18.018 0 01-.549-1.792h-.052q0 .125-.568 1.792zm5.622 1.813h-.793a7.826 7.826 0 00-.883-1.39 7.677 7.677 0 01-1.053-1.813h-.051a11.367 11.367 0 01.081 1.271q0 .794.045 1.933h-.79q.047-1 .048-2.186 0-1.172-.048-1.994h.953a6.053 6.053 0 00.793 1.358 8 8 0 01.969 1.711h.048a12.193 12.193 0 01-.077-1.284q0-.87-.045-1.785h.8q-.045.8-.045 1.994t.048 2.185zm4.653-2.233a2.369 2.369 0 01-.584 1.592 2.043 2.043 0 01-1.638.681q-.475 0-1.309-.039.041-.969.041-2.186 0-1.169-.041-1.994h.562c.092 0 .229 0 .411-.009s.3-.01.356-.01a2.162 2.162 0 011.68.578 2 2 0 01.522 1.387zm-.876.138a1.544 1.544 0 00-.36-1.038 1.362 1.362 0 00-1.1-.422 3.472 3.472 0 00-.379.029q.031.643.032 1.342 0 .767.031 1.521a2.114 2.114 0 00.417.042 1.212 1.212 0 001.022-.429 1.651 1.651 0 00.337-1.045zm5.166 2.095h-.95a6.32 6.32 0 00-.571-1.4.749.749 0 00-.642-.267h-.356q0 .826.029 1.666h-.893q.042-.969.042-2.186 0-1.168-.042-1.993h.555c.064 0 .2 0 .4-.01s.393-.009.566-.009q1.474 0 1.473 1.008a1.13 1.13 0 01-.841 1.114v.048a1 1 0 01.569.506 11.234 11.234 0 01.661 1.523zm-1.2-2.953q0-.639-.822-.639a2.8 2.8 0 00-.533.045q.036.5.035 1.3c.118 0 .218.006.3.006q1.017-.003 1.017-.712zm5.798.787a2.3 2.3 0 01-.6 1.634 1.96 1.96 0 01-1.493.648 1.885 1.885 0 01-1.419-.6 2.1 2.1 0 01-.572-1.514 2.3 2.3 0 01.6-1.634 1.956 1.956 0 011.493-.649 1.889 1.889 0 011.419.594 2.1 2.1 0 01.572 1.521zm-.886.093a1.656 1.656 0 00-.343-1.088 1.057 1.057 0 00-.848-.417.98.98 0 00-.8.42 1.683 1.683 0 00-.328 1.063 1.652 1.652 0 00.345 1.087 1.057 1.057 0 00.846.419.978.978 0 00.8-.422 1.677 1.677 0 00.332-1.064zm2.706 2.073h-.909q.042-.995.042-2.186 0-1.172-.042-1.993h.909q-.042.809-.042 1.993 0 1.21.042 2.186zm4.653-2.233a2.369 2.369 0 01-.584 1.592 2.043 2.043 0 01-1.638.681q-.475 0-1.31-.039.042-.969.042-2.186 0-1.169-.042-1.994h.562c.092 0 .229 0 .411-.009s.3-.01.356-.01a2.163 2.163 0 011.681.578 2 2 0 01.522 1.387zm-.876.138a1.544 1.544 0 00-.36-1.038 1.362 1.362 0 00-1.1-.422 3.472 3.472 0 00-.379.029q.032.643.032 1.342 0 .767.031 1.521a2.114 2.114 0 00.417.042 1.212 1.212 0 001.022-.429 1.655 1.655 0 00.333-1.045zm7.048 2.095H83.1a6.76 6.76 0 00-.293-1.2h-1.483a6.232 6.232 0 00-.3 1.2h-.966q0-.125.75-2.054a16.17 16.17 0 00.749-2.125h1.213a17.807 17.807 0 00.679 2.094 18.522 18.522 0 01.678 2.085zm-1.483-1.813a18.018 18.018 0 01-.549-1.792h-.052q0 .125-.568 1.792zm5.228-1.272a1.25 1.25 0 01-.57 1.133 2.528 2.528 0 01-1.4.366c-.1 0-.172 0-.216-.006q0 .6.036 1.592h-.9q.042-.927.042-2.186 0-1.155-.042-1.993h.559q.119 0 .456-.01t.584-.009a1.836 1.836 0 011.031.276.934.934 0 01.42.837zm-.828.176q0-.687-.912-.687a2.567 2.567 0 00-.481.048q.036.606.035 1.374c.054 0 .116.006.186.006q1.172.001 1.172-.741zm4.678-.176a1.251 1.251 0 01-.569 1.133 2.532 2.532 0 01-1.4.366c-.1 0-.172 0-.215-.006q0 .6.035 1.592h-.9q.042-.927.042-2.186 0-1.155-.042-1.993h.559q.119 0 .456-.01t.584-.009a1.836 1.836 0 011.031.276.934.934 0 01.419.837zm-.828.176q0-.687-.912-.687a2.568 2.568 0 00-.481.048q.036.606.035 1.374c.054 0 .116.006.186.006q1.172.001 1.172-.741zm7.127.743a2.3 2.3 0 01-.6 1.634 1.956 1.956 0 01-1.493.648 1.885 1.885 0 01-1.419-.6 2.1 2.1 0 01-.571-1.514 2.3 2.3 0 01.6-1.634 1.957 1.957 0 011.493-.649 1.89 1.89 0 011.419.594 2.1 2.1 0 01.571 1.521zm-.886.093a1.656 1.656 0 00-.344-1.088 1.055 1.055 0 00-.847-.417.978.978 0 00-.8.42 1.679 1.679 0 00-.328 1.063 1.652 1.652 0 00.345 1.087 1.057 1.057 0 00.846.419.979.979 0 00.8-.422 1.677 1.677 0 00.325-1.064zm5.234 2.073h-.793a7.825 7.825 0 00-.883-1.39 7.64 7.64 0 01-1.052-1.813h-.052a11.2 11.2 0 01.081 1.271q0 .794.045 1.933h-.79q.048-1 .048-2.186 0-1.172-.048-1.994h.954a6.033 6.033 0 00.793 1.358 7.983 7.983 0 01.97 1.711h.048a12.194 12.194 0 01-.077-1.284q0-.87-.045-1.785h.8q-.045.8-.045 1.994t.046 2.185z" fill="#f9f9fa"/></svg>