<svg xmlns="http://www.w3.org/2000/svg" width="41" height="40"><g transform="translate(.423)"><ellipse data-name="Ellipse 22" cx="20.5" cy="20" rx="20.5" ry="20" transform="translate(-.423)" fill="#b7d7ca"/><path data-name="Path 3237" d="M24.123 11.855a5.285 5.285 0 00-4.02 1.888 5.285 5.285 0 00-4.021-1.888 4.859 4.859 0 00-4.914 4.944c0 3.415 3.038 6.157 7.639 10.382l1.3 1.169 1.3-1.169c4.6-4.224 7.639-6.966 7.639-10.382a4.859 4.859 0 00-4.923-4.944zm-3.469 14.143l-.181.166-.37.334-.37-.334-.181-.166a54.7 54.7 0 01-5.272-5.24 6.319 6.319 0 01-1.736-3.959 3.578 3.578 0 011.017-2.544 3.518 3.518 0 012.521-1.021 3.931 3.931 0 012.969 1.4l1.052 1.251 1.052-1.251a3.931 3.931 0 012.969-1.4 3.518 3.518 0 012.52 1.021 3.578 3.578 0 011.019 2.548 6.319 6.319 0 01-1.737 3.952 54.692 54.692 0 01-5.272 5.243z"/></g></svg>