<svg xmlns="http://www.w3.org/2000/svg" width="40" height="40"><g transform="translate(-.204)"><circle data-name="Ellipse 21" cx="20" cy="20" r="20" transform="translate(.204)" fill="#b7d7ca"/><g data-name="Group 68"><path data-name="Path 3238" d="M11.168 11.168h17.869v17.869H11.168z" fill="none"/><path data-name="Path 3239" d="M20.017 17.86a.735.735 0 00.731-.735v-1.471h1.462a.736.736 0 000-1.471h-1.462v-1.471a.731.731 0 10-1.462 0v1.471h-1.462a.736.736 0 000 1.471h1.462v1.47a.735.735 0 00.731.736zm-3.655 6.617a1.471 1.471 0 101.462 1.471 1.464 1.464 0 00-1.462-1.471zm7.309 0a1.471 1.471 0 101.462 1.471 1.464 1.464 0 00-1.462-1.471zm-6.5-3.677h5.445a1.453 1.453 0 001.279-.757l2.47-4.508a.74.74 0 00-.285-1 .727.727 0 00-.987.287l-2.482 4.508h-5.134l-2.916-6.2a.725.725 0 00-.658-.419h-1.2a.736.736 0 000 1.471h.731l2.636 5.582-.987 1.794a1.473 1.473 0 001.279 2.184h8.04a.736.736 0 000-1.471h-8.04z"/></g></g></svg>