<svg xmlns="http://www.w3.org/2000/svg" width="24" height="24"><path data-name="Rectangle 11" fill="none" d="M0 0h24v24H0z"/><path d="M21.957 7.685l-2.327 7.327a1.233 1.233 0 01-1.174.87H9.478a1.282 1.282 0 01-1.2-.8l-3.435-9.2H2.87a.87.87 0 010-1.74h2.587a.89.89 0 01.826.587l3.543 9.413h8.261l1.848-5.87H9.7a.87.87 0 010-1.739h11.43a.864.864 0 01.7.37.843.843 0 01.13.783zM9.913 17.033a1.41 1.41 0 101 .413 1.434 1.434 0 00-1-.413zm7.8 0a1.41 1.41 0 101 .413 1.434 1.434 0 00-.996-.413z" fill="#0e3626"/></svg>