<svg xmlns="http://www.w3.org/2000/svg" width="28" height="28"><path data-name="Subtraction 2" d="M14 28a13.909 13.909 0 01-9.9-4.1A13.909 13.909 0 010 14a13.908 13.908 0 014.1-9.9A13.909 13.909 0 0114 0a13.908 13.908 0 019.9 4.1A13.908 13.908 0 0128 14a13.909 13.909 0 01-4.1 9.9A13.907 13.907 0 0114 28zm-8.976-8.361a10.442 10.442 0 005.645 1.655 10.377 10.377 0 0010.479-10.479c0-.167 0-.323-.012-.476a7.489 7.489 0 001.841-1.91 7.355 7.355 0 01-2.116.58 3.683 3.683 0 001.62-2.038 7.354 7.354 0 01-2.339.894 3.7 3.7 0 00-2.689-1.163 3.687 3.687 0 00-3.682 3.683 3.751 3.751 0 00.095.84 10.493 10.493 0 01-7.591-3.847 3.671 3.671 0 00-.5 1.851 3.681 3.681 0 001.638 3.065 3.678 3.678 0 01-1.669-.461v.047a3.692 3.692 0 002.955 3.611 3.64 3.64 0 01-.97.13 3.757 3.757 0 01-.694-.065 3.684 3.684 0 003.44 2.558 7.348 7.348 0 01-4.574 1.577 7.3 7.3 0 01-.877-.052z" fill="#e8f3ee"/></svg>