<svg id="icon-noproducts" xmlns="http://www.w3.org/2000/svg" xmlns:xlink="http://www.w3.org/1999/xlink" width="150" height="154.877" viewBox="0 0 150 154.877">
  <defs>
    <clipPath id="clip-path">
      <rect id="Rectangle_164" data-name="Rectangle 164" width="150" height="154.877" fill="#0e3626"/>
    </clipPath>
  </defs>
  <g id="Group_398" data-name="Group 398" clip-path="url(#clip-path)">
    <path id="Path_3308" data-name="Path 3308" d="M135.732,5.938c-.617.539-1.233.993-1.745,1.543a2.188,2.188,0,0,0-.106,3.233,2.229,2.229,0,0,0,3.249-.013c.624-.547,1.2-1.155,1.775-1.721,2.908,2.611,3.841,3.008,4.914,1.841,2.238-2.433-.527-3.54-1.529-5.074,2.9-3.742,2.946-4.023.886-5.747h-1.512l-2.736,2.381L136.22,0h-1.513c-.986.77-1.981,1.66-1.285,3a19.745,19.745,0,0,0,2.311,2.934" transform="translate(-79.366)" fill="#0e3626"/>
    <path id="Path_3309" data-name="Path 3309" d="M149.967,174.414a13.327,13.327,0,0,0-.626-3.994c-3.136-9.669-6.344-19.315-9.531-28.967a13.963,13.963,0,0,0-.651-1.847,2.079,2.079,0,0,0-2.746-1.2,2.134,2.134,0,0,0-1.477,2.626,7.4,7.4,0,0,0,.342,1.157q3.548,10.752,7.1,21.5c.768,2.329,1.517,4.665,2.327,7.161-2.866,0-5.532-.053-8.195.025a1.634,1.634,0,0,1-1.907-1.355c-3.561-10.96-7.19-21.9-10.769-32.85a7.821,7.821,0,0,1-.35-2.366c-.027-6.705-.015-13.41-.015-20.115v-1.575A1.913,1.913,0,0,1,126,113.963c.35,1.051.688,2.105,1.033,3.157q2.142,6.526,4.285,13.052c.336,1.023.9,1.966,2.059,1.874a2.961,2.961,0,0,0,2.089-1.083,3.328,3.328,0,0,0,.058-2.411c-1.616-5.136-3.318-10.245-5.007-15.358-1.289-3.9-3.151-5.243-7.252-5.244-10.335,0-20.67.024-31-.038a7.412,7.412,0,0,1-3.246-.848c-9.488-4.943-18.9-4.9-28.32.185a5.63,5.63,0,0,1-2.541.671c-10.536.045-21.073.025-31.61.032-3.845,0-5.775,1.384-6.966,5Q10.1,141.69.645,170.444a11.053,11.053,0,0,0-.6,3.243c-.063,5.04-.036,10.083-.024,15.124,0,1.865.886,2.916,2.35,2.872,1.4-.042,2.175-1.037,2.18-2.864.01-3.68,0-7.36.006-11.041,0-1.912.487-2.386,2.434-2.387,8.923-.006,17.846.015,26.77-.021A2.51,2.51,0,0,1,36.331,177c1.607,3.416,3.319,6.782,4.95,10.187a6.464,6.464,0,0,0,6.37,3.959q27.375-.046,54.75,0a6.469,6.469,0,0,0,6.349-4c1.609-3.36,3.3-6.679,4.879-10.053a2.6,2.6,0,0,1,2.669-1.73c8.923.042,17.846.018,26.77.025,1.906,0,2.386.5,2.387,2.436q.007,15.88,0,31.761c0,1.866-.481,2.361-2.294,2.361q-68.135.005-136.269,0c-1.852,0-2.331-.476-2.339-2.313-.013-2.823.006-5.646-.008-8.469-.008-1.755-.877-2.809-2.261-2.8s-2.255,1.062-2.267,2.82c-.017,2.722-.007,5.445,0,8.167,0,4.77,2.374,7.132,7.161,7.132H142.837c4.78,0,7.156-2.368,7.157-7.138,0-11.646.021-23.291-.027-34.937m-31.1-61.813v18.47H103.623A29.212,29.212,0,0,0,96,112.6Zm-87.676-.024H54.01A29.2,29.2,0,0,0,46.4,131.1h-15.2Zm-17.577,58.3c-2.7-.091-5.414-.03-8.249-.03.172-.643.276-1.128.431-1.6q9.019-27.381,18.032-54.764c.423-1.288.976-2.192,2.71-1.9v1.492c0,6.754.012,13.508-.016,20.262a7.821,7.821,0,0,1-.365,2.362c-3.578,10.951-7.2,21.888-10.769,32.841-.311.954-.7,1.366-1.774,1.33m102.766-.046a6.765,6.765,0,0,0-6.825,4.248c-1.543,3.334-3.249,6.592-4.8,9.922a2.478,2.478,0,0,1-2.573,1.613q-27.147-.045-54.3,0a2.579,2.579,0,0,1-2.675-1.7c-1.6-3.42-3.32-6.782-4.95-10.187a6.4,6.4,0,0,0-6.272-3.888c-4.184.009-8.368,0-12.553,0H19.765c.188-.631.315-1.1.467-1.563,3.454-10.519,6.928-21.03,10.346-31.56a2.511,2.511,0,0,1,2.805-2.076c4.377.1,8.757.034,13.2.034.21.985.362,1.873.589,2.743q4.348,16.64,20.908,21.309c1.733.489,2.947-.062,3.322-1.384.41-1.445-.339-2.478-2.171-2.991C57.266,152.011,50.2,142,51.082,129.65c.759-10.587,9.815-20.1,20.4-21.439,13.308-1.679,24.812,6.7,27.229,19.839,2.213,12.03-5.773,24.25-17.842,27.306a6.591,6.591,0,0,0-1.44.43,2.1,2.1,0,0,0-1.117,2.55,1.934,1.934,0,0,0,2.07,1.629,9.5,9.5,0,0,0,2.51-.478c11.132-3.615,17.936-11.13,20.23-22.634.194-.973.584-1.195,1.49-1.185,3.932.041,7.866.1,11.8-.019a2.665,2.665,0,0,1,3.052,2.163c3.291,10.2,6.666,20.374,10.011,30.557.249.758.479,1.522.78,2.481-4.807,0-9.34.048-13.872-.016" transform="translate(0 -61.613)" fill="#0e3626"/>
    <path id="Path_3310" data-name="Path 3310" d="M79.689,54.594a10.374,10.374,0,1,0-10.316-10.42,10.4,10.4,0,0,0,10.316,10.42m.084-16.209a5.836,5.836,0,1,1-5.865,5.835,5.846,5.846,0,0,1,5.865-5.835" transform="translate(-41.338 -20.168)" fill="#0e3626"/>
    <path id="Path_3311" data-name="Path 3311" d="M224.142,24.541a8.681,8.681,0,1,0-8.726-8.7,8.676,8.676,0,0,0,8.726,8.7m-.1-12.813a4.08,4.08,0,0,1,4.15,4.092,4.118,4.118,0,1,1-8.235.061,4.07,4.07,0,0,1,4.085-4.153" transform="translate(-128.364 -4.279)" fill="#0e3626"/>
    <path id="Path_3312" data-name="Path 3312" d="M262.531,60.713c-2.522,2.91-2.849,3.913-1.669,5.043,1.146,1.1,2.158.75,4.979-1.753,1.529,1.081,2.757,3.751,4.9,1.731,2.327-2.2-.551-3.5-1.571-5.065,1.1-1.5,3.73-2.75,1.707-4.872-2.207-2.316-3.49.6-5.052,1.576-1.508-1.086-2.746-3.74-4.878-1.691-2.312,2.223.6,3.487,1.587,5.031" transform="translate(-154.974 -32.729)" fill="#0e3626"/>
    <path id="Path_3313" data-name="Path 3313" d="M39.18,328.579q-4-.064-7.992,0a2.26,2.26,0,1,0-.045,4.51c1.356.043,2.714.009,4.071.01h3.77c.051,0,.1,0,.151,0a2.331,2.331,0,0,0,2.444-2.32,2.27,2.27,0,0,0-2.4-2.2" transform="translate(-17.135 -195.777)" fill="#0e3626"/>
    <path id="Path_3314" data-name="Path 3314" d="M31.053,346.088a2.243,2.243,0,1,0,.1,4.48c1.354.049,2.712.01,4.067.008s2.713.042,4.067-.014a2.235,2.235,0,1,0,.055-4.469c-2.76-.077-5.524-.074-8.284,0" transform="translate(-17.142 -206.199)" fill="#0e3626"/>
    <path id="Path_3315" data-name="Path 3315" d="M148.855,62.246c-2.17-.032-3.247,1.814-2.341,3.456,1.069,1.938,2.231,3.829,3.411,5.7a2.275,2.275,0,0,0,3.126.9,2.226,2.226,0,0,0,.772-3.146c-1.115-1.971-2.267-3.927-3.519-5.812a4.779,4.779,0,0,0-1.448-1.1" transform="translate(-87.114 -37.092)" fill="#0e3626"/>
    <path id="Path_3316" data-name="Path 3316" d="M207.227,72.877a4.525,4.525,0,0,0,1.489-1.061c1.311-1.965,2.527-4,3.682-6.06a2.217,2.217,0,0,0-3.746-2.336c-1.34,2.006-2.62,4.064-3.771,6.183-.806,1.483.318,3.224,2.345,3.273" transform="translate(-121.93 -37.229)" fill="#0e3626"/>
    <path id="Path_3317" data-name="Path 3317" d="M181.988,64.242a2.278,2.278,0,0,0,2.178-2.415c.036-1.006.007-2.015.007-3.022h.013c0-1.108.022-2.217-.005-3.325-.039-1.564-.879-2.473-2.239-2.475a2.242,2.242,0,0,0-2.278,2.466c-.048,2.114-.055,4.231-.01,6.346a2.279,2.279,0,0,0,2.335,2.424" transform="translate(-107.035 -31.586)" fill="#0e3626"/>
    <path id="Path_3318" data-name="Path 3318" d="M180.695,188.749a2.259,2.259,0,0,0-.694-3.292,11.277,11.277,0,0,0-13.241-.1c-1.324.993-1.595,2.261-.765,3.384.79,1.071,2.005,1.2,3.336.33a6.687,6.687,0,0,1,8.033.047,2.25,2.25,0,0,0,3.332-.371" transform="translate(-98.633 -109.201)" fill="#0e3626"/>
    <path id="Path_3319" data-name="Path 3319" d="M213.1,166.681a2.287,2.287,0,0,0,2.451-2.128,2.252,2.252,0,0,0-2.09-2.321,2.19,2.19,0,0,0-2.43,2.105,2.24,2.24,0,0,0,2.069,2.343" transform="translate(-125.75 -96.668)" fill="#0e3626"/>
    <path id="Path_3320" data-name="Path 3320" d="M151.39,162.222a2.247,2.247,0,0,0-2.383,2.18,2.3,2.3,0,0,0,2.309,2.281,2.216,2.216,0,0,0,2.206-2.2,2.188,2.188,0,0,0-2.131-2.259" transform="translate(-88.791 -96.664)" fill="#0e3626"/>
  </g>
</svg>
