<svg xmlns="http://www.w3.org/2000/svg" width="28" height="28"><g fill="#e8f3ee"><path data-name="Path 3221" d="M19.685 9.7A2.415 2.415 0 0018.3 8.316a4.034 4.034 0 00-1.353-.251c-.769-.035-1-.044-2.946-.044s-2.177.009-2.946.044a4.034 4.034 0 00-1.355.251 2.415 2.415 0 00-1.384 1.385 4.034 4.034 0 00-.251 1.353c-.035.769-.044 1-.044 2.946s.009 2.177.044 2.946a4.034 4.034 0 00.251 1.355 2.415 2.415 0 001.385 1.384 4.034 4.034 0 001.353.251c.769.035 1 .044 2.946.044s2.177-.009 2.946-.044a4.034 4.034 0 001.355-.251 2.415 2.415 0 001.384-1.385 4.034 4.034 0 00.251-1.353c.035-.769.044-1 .044-2.946s-.009-2.18-.044-2.947a4.034 4.034 0 00-.251-1.355zM14 17.746a3.745 3.745 0 113.745-3.745A3.745 3.745 0 0114 17.746zm3.892-6.762a.875.875 0 11.875-.875.875.875 0 01-.875.874z"/><circle data-name="Ellipse 2" cx="2.431" cy="2.431" r="2.431" transform="translate(11.569 11.569)"/><path data-name="Path 3222" d="M14 0a14 14 0 1014 14A14 14 0 0014 0zm7.248 17.007a5.352 5.352 0 01-.34 1.769 3.728 3.728 0 01-2.132 2.132 5.352 5.352 0 01-1.769.34c-.779.035-1.027.044-3.007.044s-2.228-.009-3.007-.044a5.352 5.352 0 01-1.769-.34 3.728 3.728 0 01-2.132-2.132 5.352 5.352 0 01-.34-1.769c-.035-.779-.044-1.027-.044-3.007s.009-2.228.044-3.007a5.352 5.352 0 01.34-1.769 3.727 3.727 0 012.132-2.132 5.352 5.352 0 011.769-.34c.779-.035 1.027-.044 3.007-.044s2.228.009 3.007.044a5.352 5.352 0 011.769.34 3.727 3.727 0 012.132 2.132 5.352 5.352 0 01.34 1.769c.035.779.044 1.027.044 3.007s-.009 2.228-.044 3.007z"/></g></svg>