<svg xmlns="http://www.w3.org/2000/svg" width="48" height="48"><path data-name="Rectangle 11" fill="none" d="M0 0h48v48H0z"/><path data-name="Path 145" d="M8.922 11.005A1 1 0 019.927 10h3.016a1 1 0 01.979.762l.815 3.259h23.34a1.005 1.005 0 01.975 1.248l-3.02 12.063a1 1 0 01-.975.762H16.964a1 1 0 01-.975-.762l-3.83-15.322H9.927a1 1 0 01-1.005-1.005zm6.313 5.026l2.513 10.052h16.526l2.513-10.052zm3.739 16.083a2.01 2.01 0 102.01 2.01 2.01 2.01 0 00-2.01-2.009zm-4.021 2.01a4.021 4.021 0 114.021 4.021 4.021 4.021 0 01-4.021-4.02zm18.094-2.01a2.01 2.01 0 102.01 2.01 2.01 2.01 0 00-2.01-2.009zm-4.025 2.011a4.021 4.021 0 114.021 4.021 4.021 4.021 0 01-4.021-4.021z" fill="#6d114a" fill-rule="evenodd"/></svg>