<svg xmlns="http://www.w3.org/2000/svg" width="24" height="24"><g transform="translate(-1431 -1317)"><path data-name="Rectangle 11" fill="none" d="M1431 1317h24v24h-24z"/><path d="M1452.957 1326.684l-2.327 7.327a1.233 1.233 0 01-1.174.87h-8.978a1.282 1.282 0 01-1.2-.8l-3.435-9.2h-1.973a.87.87 0 010-1.74h2.587a.89.89 0 01.826.587l3.543 9.413h8.261l1.848-5.87H1440.7a.87.87 0 010-1.739h11.43a.864.864 0 01.7.37.843.843 0 01.13.783zm-12.044 9.348a1.41 1.41 0 101 .413 1.434 1.434 0 00-1-.413zm7.8 0a1.41 1.41 0 101 .413 1.434 1.434 0 00-.996-.413z" fill="#0e3626"/><circle data-name="Ellipse 34" cx="3" cy="3" r="3" transform="translate(1447 1318)" fill="#32c288"/></g></svg>