<svg xmlns="http://www.w3.org/2000/svg" width="12.8" height="24.8"><path d="M4.525 0h3.75A1.527 1.527 0 019.8 1.525V3.8H3V1.525A1.527 1.527 0 014.525 0zM9 3V1.525A.726.726 0 008.275.8h-3.75a.726.726 0 00-.725.725V3zM4.277 4.5h4.247a4.322 4.322 0 011.814.4l1.152.543a2.368 2.368 0 011.31 2.068 2.269 2.269 0 01-.674 1.622 2.625 2.625 0 01-.1 3.621 2.7 2.7 0 01.777 1.854 2.667 2.667 0 01-.777 1.918 2.649 2.649 0 010 3.75A2.65 2.65 0 0110.15 24.8h-7.5a2.65 2.65 0 01-1.873-4.525 2.651 2.651 0 010-3.75 2.67 2.67 0 01-.776-1.918 2.7 2.7 0 01.777-1.854 2.627 2.627 0 01-.1-3.621 2.286 2.286 0 01.645-3.691L2.461 4.9a4.317 4.317 0 011.816-.4zm6.862 1.665L10 5.627A3.515 3.515 0 008.523 5.3H4.277a3.51 3.51 0 00-1.476.328l-1.143.539a1.484 1.484 0 00-.161 2.6l.488.306-.457.351A1.827 1.827 0 00.8 10.855a1.742 1.742 0 00.81 1.531l.519.309-.487.357a1.967 1.967 0 00-.843 1.553 1.863 1.863 0 00.827 1.584l.5.333-.5.333a1.85 1.85 0 000 3.084l.5.333-.5.333A1.85 1.85 0 002.65 24h7.5a1.849 1.849 0 001.021-3.391l-.5-.334.5-.334a1.848 1.848 0 000-3.083l-.5-.334.5-.334a1.859 1.859 0 00.828-1.584 1.962 1.962 0 00-.844-1.552l-.49-.358.522-.309a1.738 1.738 0 00.812-1.531 1.825 1.825 0 00-.729-1.431l-.459-.351.489-.304a1.474 1.474 0 00.7-1.259 1.552 1.552 0 00-.862-1.346zM4.15 10.5h4.5a1.15 1.15 0 110 2.3h-4.5a1.15 1.15 0 110-2.3zm4.5 1.5a.35.35 0 000-.7h-4.5a.35.35 0 000 .7zm-4.5 4.5h4.5a1.15 1.15 0 110 2.3h-4.5a1.15 1.15 0 110-2.3zm4.5 1.5a.35.35 0 000-.7h-4.5a.35.35 0 000 .7z" fill="#850b5a"/></svg>