<svg xmlns="http://www.w3.org/2000/svg" width="17.6" height="24"><path data-name="Path 101" d="M14.8 22.4h-12a.4.4 0 110-.8h12a.4.4 0 110 .8z" fill="#850b5a"/><path data-name="Path 102" d="M15.6 24H2a.681.681 0 01-.28-.04.361.361 0 01-.2-.04l-.08-.04c-.16-.04-.28-.12-.44-.16a.086.086 0 01-.08-.08 2.2 2.2 0 01-.36-.28.7.7 0 01-.16-.2.874.874 0 01-.12-.2A1.6 1.6 0 010 22v-.8a.4.4 0 01.8 0v.8a.918.918 0 00.16.56.039.039 0 00.04.04c.04.04.04.08.08.08q.06.12.12.12a.873.873 0 00.2.16l.04.04.24.12.08.04H16c.08-.04.16-.04.24-.12a.14.14 0 01.08-.04.7.7 0 00.2-.16c0-.04.04-.04.08-.08s.08-.08.08-.12a.039.039 0 01.04-.04 3.088 3.088 0 00.08-.6v-3.08l-1-1.32h-14l-1 1.32v.68a.4.4 0 11-.8 0v-.8a.569.569 0 01.08-.24l1.2-1.6a.364.364 0 01.32-.16H16a.364.364 0 01.32.16l1.2 1.6a.569.569 0 01.08.24V22a1.805 1.805 0 01-.28 1v.04a.4.4 0 01-.16.2.552.552 0 00-.12.16 1.566 1.566 0 01-.4.32.14.14 0 01-.08.04 1.2 1.2 0 01-.4.16l-.12.04a1.732 1.732 0 01-.2.04h-.24zM1 22.8zM11.2 4H6.4a1.179 1.179 0 01-1.2-1.2V.4a.378.378 0 01.4-.4h.8a.378.378 0 01.4.4.378.378 0 01-.4.4H6v2a.378.378 0 00.4.4h4.8a.378.378 0 00.4-.4v-2H8a.378.378 0 01-.4-.4A.378.378 0 018 0h4a.378.378 0 01.4.4v2.4A1.179 1.179 0 0111.2 4z" fill="#850b5a"/><path data-name="Path 103" d="M14.8 22.4h-12a.4.4 0 010-.8h12a.4.4 0 010 .8zM5.2 10.8h-.4a.4.4 0 110-.8h.4a.4.4 0 110 .8z" fill="#850b5a"/><path data-name="Path 104" d="M16 17.6H1.6a.378.378 0 01-.4-.4v-6.8a.378.378 0 01.4-.4h1.6a.4.4 0 010 .8H2v6h13.6v-6H6.8a.4.4 0 010-.8H16a.378.378 0 01.4.4v6.8a.378.378 0 01-.4.4z" fill="#850b5a"/><path data-name="Path 105" d="M10.8 15.6H5.4a1.793 1.793 0 01-1.8-1.8 1.926 1.926 0 01.52-1.28A1.85 1.85 0 015.4 12h6.8a1.793 1.793 0 011.8 1.8 1.926 1.926 0 01-.52 1.28 2.015 2.015 0 01-1 .52.385.385 0 11-.12-.76 1.067 1.067 0 00.56-.28.964.964 0 00.28-.72.99.99 0 00-1-1H5.4a1.15 1.15 0 00-.72.28.964.964 0 00-.28.72.99.99 0 001 1h5.4a.378.378 0 01.4.4c0 .24-.16.36-.4.36zm-5.6-4.8h-.4a.4.4 0 110-.8h.4a.4.4 0 110 .8z" fill="#850b5a"/><path data-name="Path 106" d="M3.2 10.8H1.6a.364.364 0 01-.32-.16l-1.2-1.6A.569.569 0 010 8.8V6.96a2.415 2.415 0 012.08-2.4l3.56-.48a.425.425 0 00.36-.4V3.6a.378.378 0 01.4-.4h4.8a.378.378 0 01.4.4v.12a.425.425 0 00.36.4l3.56.48a2.424 2.424 0 012.08 2.2.435.435 0 01-.36.44.469.469 0 01-.44-.36 1.617 1.617 0 00-1.4-1.48l-3.56-.48a1.259 1.259 0 01-1-.88H6.76a1.147 1.147 0 01-1 .88L2.2 5.4A1.632 1.632 0 00.8 7v1.72l1 1.32h1.4a.378.378 0 01.4.4c0 .24-.16.36-.4.36zm12.8 0H6.8a.4.4 0 010-.8h9l1-1.32V8.4a.4.4 0 11.8 0v.4a.569.569 0 01-.08.24l-1.2 1.6a.364.364 0 01-.32.16z" fill="#850b5a"/></svg>