<?xml version="1.0" standalone="no"?>
<!DOCTYPE svg PUBLIC "-//W3C//DTD SVG 20010904//EN"
 "http://www.w3.org/TR/2001/REC-SVG-20010904/DTD/svg10.dtd">
<svg version="1.0" xmlns="http://www.w3.org/2000/svg"
 width="1080.000000pt" height="1080.000000pt" viewBox="0 0 1080.000000 1080.000000"
 preserveAspectRatio="xMidYMid meet">
<metadata>
Created by potrace 1.14, written by Peter Selinger 2001-2017
</metadata>
<g transform="translate(0.000000,1080.000000) scale(0.100000,-0.100000)"
fill="#000000" stroke="none">
<path d="M7940 8994 c0 -18 -62 -207 -84 -258 -8 -17 -20 -47 -27 -66 -57
-153 -167 -364 -355 -678 -390 -651 -454 -802 -454 -1060 0 -229 82 -438 237
-608 109 -119 289 -226 448 -267 126 -32 237 -42 342 -28 147 18 203 35 343
99 64 29 174 113 244 185 241 249 317 591 204 922 -27 80 -188 400 -238 475
-9 14 -24 39 -32 55 -8 17 -55 95 -103 175 -172 282 -279 481 -368 680 -21 48
-64 162 -88 235 -11 33 -24 69 -29 80 -4 11 -11 32 -14 48 -7 29 -26 38 -26
11z m40 -190 c11 -60 23 -122 29 -139 l9 -30 1 28 c1 16 -4 37 -10 48 -6 12
-8 28 -4 37 7 19 18 0 54 -93 13 -33 27 -69 31 -80 99 -233 140 -313 320 -620
367 -623 422 -755 424 -1000 1 -143 -11 -202 -65 -309 -96 -189 -254 -351
-430 -438 -119 -58 -211 -80 -374 -86 -156 -6 -137 -15 60 -27 61 -4 117 -9
125 -12 8 -3 -25 -12 -75 -19 -69 -11 -115 -11 -200 -3 -177 16 -319 69 -460
170 -170 121 -274 268 -341 484 -24 78 -28 107 -28 215 0 108 3 138 27 220 46
156 147 349 430 814 53 88 97 160 97 162 0 1 20 37 45 79 46 78 122 232 168
340 31 73 77 198 77 208 0 15 62 168 66 164 3 -2 13 -53 24 -113z"/>
<path d="M7310 6428 c0 -49 124 -161 246 -222 l78 -39 135 2 c159 2 240 13
333 45 115 40 221 114 254 178 21 40 4 35 -73 -21 -85 -62 -170 -104 -250
-125 -66 -17 -191 -20 -263 -6 -27 5 -52 4 -63 -1 -13 -7 -19 -6 -23 5 -3 8
-30 22 -60 31 -81 23 -174 69 -243 120 -67 49 -71 51 -71 33z"/>
<path d="M6008 7706 c-97 -36 -130 -88 -135 -216 -5 -108 18 -162 87 -200 39
-22 57 -25 142 -25 91 0 99 2 139 30 23 17 52 48 63 70 22 43 33 149 22 210
-9 47 -56 99 -108 120 -58 23 -164 29 -210 11z"/>
<path d="M4705 7701 c-38 -3 -76 -10 -82 -14 -18 -12 -18 -56 18 -1082 25
-722 34 -915 45 -932 14 -22 16 -23 187 -17 121 5 176 10 186 20 12 11 10 147
-18 956 -17 519 -34 967 -37 996 -8 76 -18 82 -132 80 -53 -1 -128 -4 -167 -7z"/>
<path d="M4007 7375 c-70 -13 -134 -29 -142 -35 -8 -7 -15 -26 -15 -42 0 -17
41 -285 91 -597 124 -776 122 -755 75 -823 -31 -45 -81 -67 -208 -90 -62 -11
-121 -24 -130 -29 -23 -13 -23 -48 2 -185 18 -103 33 -134 63 -134 35 0 313
53 358 69 141 48 239 124 288 222 78 155 72 257 -53 1032 -53 330 -101 608
-107 618 -13 25 -57 24 -222 -6z"/>
<path d="M2660 7214 c-30 -8 -97 -34 -147 -59 -246 -121 -372 -348 -329 -593
37 -209 160 -346 359 -396 31 -8 137 -22 235 -31 280 -25 333 -40 367 -106 37
-71 -15 -143 -151 -205 -40 -19 -207 -84 -371 -145 -394 -146 -438 -150 -517
-46 -15 20 -86 193 -166 408 -81 217 -147 379 -157 387 -22 16 -36 12 -178
-39 -135 -49 -155 -62 -155 -96 0 -35 272 -769 318 -857 45 -86 118 -161 191
-195 52 -24 66 -26 191 -26 120 0 145 3 225 29 176 55 712 258 810 306 172 85
292 206 330 333 45 151 -14 366 -129 476 -97 91 -185 121 -456 156 -274 35
-344 59 -382 135 -45 89 -8 175 99 229 96 48 163 38 284 -44 44 -30 84 -55 89
-55 21 0 190 240 190 270 0 25 -81 94 -145 125 -30 14 -79 32 -111 40 -72 19
-221 18 -294 -1z"/>
<path d="M5720 7024 c-98 -20 -198 -54 -233 -79 -27 -18 -32 -27 -31 -61 1
-21 16 -85 34 -142 37 -118 55 -137 113 -113 194 78 522 103 681 52 97 -32
166 -101 195 -195 54 -174 27 -444 -54 -550 -26 -35 -94 -70 -117 -61 -23 8
-826 85 -888 85 -53 0 -62 -3 -70 -22 -14 -33 -29 -239 -19 -265 10 -28 12
-28 254 -48 592 -48 1195 -159 1610 -297 463 -154 1012 -422 1498 -729 125
-79 148 -87 181 -65 35 22 126 177 126 213 0 39 -16 52 -190 163 -193 122
-266 175 -322 232 -90 92 -100 189 -34 323 77 157 153 217 274 216 118 0 181
-26 424 -175 99 -61 132 -77 151 -72 18 4 43 35 87 107 35 56 65 110 68 121 7
29 -19 51 -195 159 -247 152 -376 204 -538 215 -263 19 -500 -143 -619 -420
-24 -58 -31 -88 -34 -168 -4 -97 -4 -98 -30 -98 -14 0 -100 32 -191 72 -98 42
-346 132 -601 218 l-435 145 1 30 c1 17 13 57 27 90 46 108 60 209 54 389 -3
118 -10 182 -26 241 -75 286 -266 438 -616 490 -129 19 -444 19 -535 -1z"/>
<path d="M4586 5411 c-11 -4 -22 -15 -25 -24 -7 -18 16 -1855 23 -1873 3 -9
47 -11 163 -9 87 1 162 3 167 4 5 0 7 220 5 533 l-4 533 37 17 c54 26 199 40
277 27 113 -18 155 -49 181 -134 8 -28 14 -182 19 -495 3 -250 9 -460 13 -466
4 -6 65 -10 170 -9 l163 1 3 134 c5 248 -16 891 -31 950 -40 160 -131 245
-304 284 -95 21 -312 21 -423 0 -121 -22 -114 -37 -120 267 -4 207 -8 251 -20
259 -18 11 -266 12 -294 1z"/>
<path d="M3222 5331 c-64 -22 -118 -64 -144 -111 -40 -73 -4 -222 72 -297 60
-61 138 -65 247 -14 107 51 155 134 134 232 -13 60 -51 137 -83 166 -50 47
-134 56 -226 24z"/>
<path d="M3915 5284 c-114 -19 -194 -51 -201 -80 -3 -13 19 -122 51 -254 31
-126 55 -236 52 -244 -3 -8 -32 -15 -84 -20 -201 -17 -392 -94 -486 -195 -76
-83 -98 -144 -105 -288 -9 -223 64 -529 169 -706 56 -95 158 -200 225 -233 95
-46 150 -35 429 89 44 20 149 54 234 77 213 56 241 77 241 175 0 25 -32 174
-71 332 -39 159 -129 524 -199 813 -123 501 -140 555 -169 549 -3 -1 -42 -7
-86 -15z m-27 -867 c13 -15 182 -690 182 -726 0 -41 -28 -59 -156 -101 -275
-89 -350 -38 -439 305 -47 177 -52 297 -18 361 40 76 114 122 248 155 85 21
168 24 183 6z"/>
<path d="M2685 5130 c-95 -23 -179 -92 -191 -155 -11 -59 1 -127 32 -190 37
-73 87 -116 147 -122 92 -11 233 61 272 138 32 61 10 192 -47 272 -39 55 -128
79 -213 57z"/>
<path d="M6267 4753 c-16 -25 -45 -243 -32 -243 23 0 294 -57 385 -82 193 -51
281 -106 296 -185 9 -44 -19 -192 -37 -204 -7 -4 -42 13 -84 42 -146 99 -293
144 -455 137 -81 -3 -105 -8 -155 -33 -158 -77 -264 -276 -268 -505 -2 -151
33 -185 253 -245 139 -39 200 -61 349 -127 176 -79 264 -108 324 -108 44 0 54
4 82 34 46 50 102 196 204 542 104 351 115 401 109 492 -7 88 -38 153 -108
222 -67 67 -160 117 -305 165 -180 58 -543 122 -558 98z m334 -789 c75 -22
166 -70 179 -93 15 -29 13 -43 -27 -178 -48 -164 -54 -169 -162 -124 -42 17
-115 42 -162 55 -150 42 -165 53 -162 120 3 89 63 193 128 222 41 18 140 17
206 -2z"/>
<path d="M2120 4573 c-52 -8 -155 -45 -224 -80 -189 -94 -331 -219 -389 -340
-31 -65 -32 -73 -32 -188 1 -109 4 -129 33 -215 18 -52 64 -153 101 -225 57
-109 592 -1004 623 -1042 18 -22 42 -14 98 32 30 25 88 67 128 92 39 26 72 52
72 58 0 12 -46 80 -122 180 -66 87 -144 206 -152 232 -16 52 61 121 229 206
130 65 128 62 126 209 -2 132 -13 168 -53 168 -11 0 -117 -58 -235 -130 -117
-71 -222 -130 -232 -130 -26 0 -38 17 -144 202 -154 271 -184 389 -124 491 71
121 265 206 381 167 50 -16 133 -95 193 -182 48 -70 242 -400 508 -866 70
-123 134 -226 141 -229 8 -3 35 11 61 30 27 19 82 52 123 74 59 31 76 44 78
63 2 17 -71 155 -240 450 -294 514 -332 577 -410 683 -167 225 -346 322 -538
290z"/>
<path d="M7651 4284 c-72 -37 -111 -115 -361 -717 -131 -315 -180 -444 -176
-461 4 -17 41 -46 127 -100 125 -78 143 -85 171 -63 9 6 83 181 163 387 214
548 231 586 263 599 35 15 57 8 226 -74 170 -83 176 -82 224 18 48 100 50 118
15 156 -33 36 -311 187 -428 232 -99 39 -177 47 -224 23z"/>
<path d="M8765 4126 c-49 -30 -122 -125 -131 -172 -9 -48 1 -79 41 -123 44
-49 103 -89 155 -107 37 -13 45 -13 83 4 72 32 156 145 157 211 0 60 -91 157
-184 196 -49 21 -74 19 -121 -9z"/>
<path d="M8110 3288 c-239 -299 -410 -521 -410 -533 1 -13 29 -42 83 -83 45
-34 93 -78 106 -97 15 -22 32 -35 45 -35 15 1 68 59 191 213 94 116 282 350
418 520 147 182 247 315 245 325 -4 22 -227 202 -250 202 -12 0 -163 -181
-428 -512z"/>
<path d="M4368 3314 c-2 -10 -1 -35 4 -54 12 -53 10 -102 -3 -94 -6 3 -14 1
-18 -5 -5 -8 -16 -3 -34 15 -15 15 -27 31 -27 35 0 5 -10 8 -22 8 -19 -1 -20
-2 -5 -6 14 -4 18 -12 14 -29 -2 -13 0 -21 4 -18 5 3 9 0 9 -7 0 -6 8 -18 18
-25 13 -10 14 -15 5 -25 -10 -10 -18 -10 -40 1 -16 8 -31 15 -34 17 -4 1 -18
-6 -31 -16 -25 -20 -41 -17 -51 9 -4 12 -6 11 -6 -2 -1 -10 -7 -18 -15 -18
-10 0 -12 -7 -8 -22 7 -31 20 -37 55 -27 16 5 27 6 23 2 -3 -3 -1 -11 4 -18
13 -15 -24 -55 -51 -55 -25 0 -59 -17 -59 -30 0 -6 7 -10 15 -10 24 0 17 -17
-9 -24 -13 -3 -30 -20 -39 -38 -14 -29 -17 -30 -23 -14 -5 13 -1 23 10 32 15
11 7 12 -50 8 -104 -7 -588 -75 -597 -84 -7 -6 164 -57 508 -150 39 -11 86
-21 105 -22 38 -3 63 -27 54 -51 -10 -27 15 -28 32 -2 11 17 24 25 38 23 18
-3 20 -9 18 -39 -2 -23 2 -40 12 -48 17 -14 21 -9 28 34 4 22 38 34 38 13 0
-7 4 -19 9 -27 7 -11 13 -10 32 7 23 22 26 22 111 1 33 -9 37 -12 33 -37 -5
-28 -14 -131 -14 -167 -1 -18 -6 -20 -36 -17 -39 5 -42 20 -6 38 19 10 14 12
-41 18 -244 25 -677 82 -815 107 l-62 11 -70 144 c-39 79 -75 144 -82 144 -6
0 -13 -9 -16 -20 -4 -14 -14 -20 -32 -20 -92 0 -191 -44 -191 -84 0 -34 271
-262 461 -388 281 -187 534 -310 832 -407 351 -114 658 -163 1032 -164 239 -1
372 9 585 44 477 79 974 285 1376 570 129 91 149 120 141 202 -4 42 -11 56
-39 82 -26 25 -33 37 -27 52 12 32 -4 44 -76 54 -63 9 -76 7 -159 -20 -109
-36 -266 -81 -281 -81 -8 0 -39 83 -32 85 1 1 21 13 45 28 47 30 47 47 1 47
-19 0 -29 5 -29 15 0 24 -31 65 -49 65 -9 0 -21 10 -26 22 -6 12 -21 25 -35
28 -17 4 -24 12 -22 24 3 15 -2 17 -25 12 -26 -6 -31 -3 -46 29 l-17 37 -19
-24 c-19 -22 -20 -22 -26 -3 -19 58 -45 72 -45 25 0 -24 -4 -31 -15 -26 -52
20 -199 38 -272 33 -123 -7 -211 -53 -408 -211 -88 -71 -140 -101 -222 -126
-60 -18 -87 -20 -338 -16 -269 4 -274 4 -328 29 -56 27 -84 67 -47 67 12 0 20
-8 22 -22 2 -17 9 -23 26 -22 12 0 22 -3 22 -8 0 -5 4 -7 9 -4 4 3 11 31 14
62 3 31 8 58 11 61 3 3 17 1 33 -4 25 -9 28 -15 28 -53 0 -26 5 -45 13 -47 6
-3 12 0 12 5 0 6 8 8 18 5 29 -7 52 36 42 78 -12 54 -19 64 -50 83 -17 9 -28
21 -25 27 9 13 -27 58 -48 59 -15 0 -15 3 -5 20 8 12 19 18 29 15 9 -3 21 1
28 9 17 20 -27 30 -47 10 -8 -8 -21 -13 -28 -10 -7 3 -16 1 -19 -4 -4 -6 -15
-10 -26 -10 -17 0 -18 -3 -7 -20 20 -32 3 -33 -32 0 l-32 30 -44 -31 c-38 -26
-45 -28 -50 -14 -4 9 -18 21 -31 26 -13 5 -22 13 -19 17 3 5 -13 9 -36 10 -22
1 -47 7 -54 13 -8 7 -29 9 -51 5 l-38 -6 23 19 c26 22 28 31 7 31 -12 0 -14 7
-9 28 4 15 11 33 17 40 15 20 -23 15 -61 -8 -18 -11 -35 -20 -37 -20 -11 0 -4
28 10 40 22 18 19 33 -4 21 -24 -13 -30 1 -32 67 -1 26 -4 37 -6 24 -3 -13
-11 -26 -19 -29 -8 -3 -14 -9 -14 -15 0 -10 -25 -38 -33 -38 -9 0 -33 69 -35
104 -2 13 -7 16 -19 12 -9 -4 -20 -1 -24 5 -5 8 -8 6 -11 -7z m-24 -209 c3 -8
1 -15 -4 -15 -6 0 -10 7 -10 15 0 8 2 15 4 15 2 0 6 -7 10 -15z m49 -12 c-7
-2 -19 -2 -25 0 -7 3 -2 5 12 5 14 0 19 -2 13 -5z m225 -21 c2 -7 -3 -12 -12
-12 -9 0 -16 7 -16 16 0 17 22 14 28 -4z m330 -129 c2 -13 -6 -23 -24 -32 -15
-6 -29 -9 -32 -7 -2 3 -13 1 -23 -5 -16 -8 -19 -6 -19 11 0 11 5 20 10 20 6 0
10 5 10 11 0 39 72 40 78 2z m-186 -15 c40 -23 88 -84 88 -111 0 -8 9 -26 21
-41 l21 -26 -28 11 c-43 16 -56 29 -44 44 11 14 3 45 -11 45 -5 0 -9 6 -9 14
0 8 -8 17 -17 21 -10 3 -31 17 -48 30 -23 19 -26 25 -12 25 9 0 27 -6 39 -12z
m-673 -132 c8 -10 9 -16 1 -21 -5 -3 -10 1 -10 11 0 13 -3 14 -15 4 -12 -10
-15 -10 -15 4 0 20 23 21 39 2z m2758 -2 c-3 -3 -12 -4 -19 -1 -8 3 -5 6 6 6
11 1 17 -2 13 -5z m-2834 -41 c-7 -2 -19 -2 -25 0 -7 3 -2 5 12 5 14 0 19 -2
13 -5z m524 -135 c-2 -15 1 -29 7 -32 7 -2 7 -8 -1 -17 -18 -18 -38 3 -28 28
4 10 7 36 6 58 -1 37 0 38 10 15 6 -14 9 -37 6 -52z m2204 -20 c6 -22 3 -27
-20 -31 -14 -3 -34 -9 -43 -12 -15 -6 -18 -2 -18 23 0 33 26 52 33 24 4 -14 6
-13 12 6 9 29 27 24 36 -10z m-781 1 c-30 -11 -107 -46 -170 -78 -63 -32 -148
-69 -188 -81 -41 -12 -88 -30 -105 -41 l-32 -19 85 -2 c119 -4 211 0 315 13
100 12 400 86 602 148 73 23 135 41 138 41 4 0 5 -10 3 -22 -3 -19 -19 -27
-118 -55 -367 -105 -522 -132 -893 -156 -151 -10 -180 -15 -188 -29 -17 -30
-12 -102 9 -143 20 -40 134 -157 205 -209 20 -16 37 -32 37 -36 0 -8 -163 -36
-442 -75 -128 -19 -179 -22 -222 -15 -30 5 -141 43 -248 84 -106 41 -294 114
-416 161 -123 47 -230 88 -237 93 -8 4 123 5 291 4 242 -3 325 -1 405 12 117
19 146 33 254 120 102 83 158 111 270 135 50 11 135 34 190 51 164 52 234 71
355 95 140 29 173 30 100 4z m-727 -16 c-7 -2 -19 -2 -25 0 -7 3 -2 5 12 5 14
0 19 -2 13 -5z m-643 -67 c58 -14 403 -76 423 -76 4 0 7 -7 7 -16 0 -9 6 -14
13 -11 6 2 11 9 10 15 -3 12 66 5 80 -8 5 -4 -15 -22 -43 -40 l-51 -33 -167 7
c-92 4 -210 11 -262 16 -66 6 -97 6 -101 -2 -10 -16 -21 45 -18 104 3 63 6 70
27 64 10 -2 46 -11 82 -20z m-177 -266 c8 -30 86 -29 94 1 4 12 11 18 20 15 8
-3 26 -6 39 -6 15 0 24 -6 24 -15 0 -9 10 -16 28 -17 75 -4 -80 -14 -213 -13
-146 0 -198 12 -124 27 19 4 52 11 74 16 22 6 43 10 46 11 4 0 9 -8 12 -19z"/>
<path d="M5540 3170 c-117 -12 -207 -57 -153 -76 10 -4 29 -16 41 -28 22 -19
34 -21 159 -19 105 2 140 6 153 18 9 8 24 15 32 15 21 0 42 26 34 45 -3 10
-19 15 -48 15 -24 0 -63 9 -87 20 -24 11 -48 19 -55 18 -6 0 -40 -4 -76 -8z"/>
<path d="M4688 3093 c6 -2 18 -2 25 0 6 3 1 5 -13 5 -14 0 -19 -2 -12 -5z"/>
<path d="M4068 3050 c-7 -11 -18 -20 -25 -20 -17 0 -17 -25 0 -39 19 -15 30
-1 14 17 -10 13 -9 14 8 9 23 -7 58 11 38 19 -7 3 -9 12 -6 20 8 21 -15 17
-29 -6z"/>
<path d="M5174 2933 c4 -5 12 -9 17 -9 5 -1 14 -2 19 -3 6 0 10 -12 10 -26 0
-14 5 -25 10 -25 13 0 13 26 0 51 -7 11 -21 19 -37 19 -14 0 -23 -3 -19 -7z"/>
</g>
</svg>
