<svg xmlns="http://www.w3.org/2000/svg" width="32.103" height="24"><defs><clipPath id="a"><path data-name="Rectangle 121" fill="none" d="M0 0h32.103v24H0z"/></clipPath></defs><path data-name="Rectangle 112" fill="#004489" d="M0 0h32.103v6.371H0z"/><path data-name="Rectangle 113" fill="#004489" d="M0 6.99h32.103v10.021H0z"/><path data-name="Rectangle 114" fill="#004489" d="M0 17.629h32.103V24H0z"/><path data-name="Rectangle 115" fill="#fff" d="M27.013 4.845h.945v.588h-.945z"/><path data-name="Rectangle 116" fill="#fff" d="M25.807 4.845h.945v.588h-.945z"/><path data-name="Path 131" d="M12.578 3.742h-.577v-.829h-1.166v.829H2.418l-.1-.219.8-1.039v-.742h-1.15L.702 3.388l.721 1.54h12.32V2.913h-1.165z" fill="#fff"/><path data-name="Rectangle 117" fill="#fff" d="M12.715 1.832h.945v.588h-.945z"/><path data-name="Rectangle 118" fill="#fff" d="M3.849 2.01h.945v.588h-.945z"/><path data-name="Rectangle 119" fill="#fff" d="M5.076 2.01h.945v.588h-.945z"/><path data-name="Path 132" d="M30.673 2.675H27.23l-.524-.434h3.658l-.382-.666H25.39l-.074.235 1.577 1.315h2.714v.349h-2.932l-1-.83h-1.989v1.757h-3.275v-.72h2.762v-1.04h-4.464v2.61h6.156V3.865l.694.579h5.154l.723-.741v-.241z" fill="#fff"/><path data-name="Rectangle 120" fill="#fff" d="M14.891 3.235h2.18v.952h-2.18z"/><path data-name="Path 133" d="M27.857 16.02l-5.894-4.433 5.79-3.546H17.381l-5.073 3.107V8.041H5.076v7.979h7.233v-4.154l4.643 4.154z" fill="#fe0"/><g data-name="Group 295"><g data-name="Group 294" clip-path="url(#a)" fill="#fff"><path data-name="Path 134" d="M3.634 23.143v-3.954h1.041v.469a1.443 1.443 0 01.524-.431 1.546 1.546 0 01.673-.144 1.3 1.3 0 01.98.34 1.43 1.43 0 01.325 1.024v2.7H6.115v-2.39a.993.993 0 00-.144-.607.56.56 0 00-.467-.182.79.79 0 00-.593.224.835.835 0 00-.218.609v2.346z"/><path data-name="Path 135" d="M16.721 21.894h1.055a1.689 1.689 0 01-.646.98 1.953 1.953 0 01-1.184.355 1.711 1.711 0 01-1.36-.577 2.3 2.3 0 01-.5-1.562 2.232 2.232 0 01.495-1.531 1.712 1.712 0 011.353-.56 1.789 1.789 0 011.4.551 2.272 2.272 0 01.495 1.569v.169a.994.994 0 01-.009.107h-2.641a1.127 1.127 0 00.227.7.741.741 0 00.591.236.842.842 0 00.447-.107.726.726 0 00.276-.333m-1.542-1.193h1.557a.9.9 0 00-.213-.609.747.747 0 00-.569-.209.711.711 0 00-.544.211.978.978 0 00-.231.608"/><path data-name="Path 136" d="M28.339 23.634q-.145 0-.347.013t-.256.009a1.163 1.163 0 01-.831-.227 1.308 1.308 0 01-.224-.9v-2.138h-.526v-.742h.524v-1.08h1.047v1.08h.611v.742h-.611v2.19a.241.241 0 00.069.206.545.545 0 00.284.049h.258z"/></g></g></svg>