<svg xmlns="http://www.w3.org/2000/svg" viewBox="0 0 76.304 76.304"><path d="M72.325 33.234v-2.947c0-5.389-3.698-9.919-8.686-11.217l-.009-4.859c0-4.742-3.859-8.601-8.603-8.601h-.455L14.31 18.1a8.487 8.487 0 00-2.604.584h-.105C5.205 18.684 0 23.889 0 30.287v28.804c0 6.397 5.204 11.603 11.601 11.603h49.123c6.396 0 11.601-5.205 11.601-11.603V55.26c2.323-.899 3.979-3.151 3.979-5.789v-10.45c-.001-2.636-1.656-4.888-3.979-5.787zM70.303 49.47a.21.21 0 01-.211.211H53.851a.208.208 0 01-.21-.211V39.021a.21.21 0 01.21-.209h16.241a.21.21 0 01.211.209V49.47zM55.398 11.637a2.606 2.606 0 012.232 2.579l.008 4.469H32.679l22.719-7.048zm5.326 53.056H11.602a5.603 5.603 0 01-5.601-5.603V30.287a5.602 5.602 0 015.601-5.603h49.122a5.601 5.601 0 015.601 5.603v2.525H53.851a6.216 6.216 0 00-6.21 6.209V49.47a6.218 6.218 0 006.21 6.211h12.474v3.41a5.602 5.602 0 01-5.601 5.602z"/></svg>