<svg version="1.0" xmlns="http://www.w3.org/2000/svg" width="1333.333" height="1333.333" viewBox="0 0 1000 1000"><path d="M737.1 64.6c-7.6 23.6-19.5 48.9-36 76.4-3.2 5.2-8.2 13.5-11.1 18.4-15 24.9-29 51.9-32.4 62.1-8.2 25.3-4.9 50.9 9.6 73.6 11.4 17.8 32.3 32 55 37.4 10.4 2.4 29.6 2 41.4-1 31.5-8 56.3-33 63.4-64 1.9-8.2 2.2-11.4 1.7-22.3-.7-15.7-2.8-23.5-10.8-39.7-7.2-14.8-14.3-27.2-37.9-67-17.4-29.4-29-54.7-36.5-79.4l-2.2-7.5-4.2 13zm10.5 12c2.4 6.7 4.4 12.5 4.4 12.9 0 .4 1.4 3.6 3 7.2 1.7 3.5 3 6.7 3 7 0 1.3 13 26 19.8 37.8 29.1 49.9 39.2 69.1 43.1 81.9 5.8 19 4.2 43-3.6 55.4-14.8 23.1-29.6 35.7-50.5 42.8-8.7 2.9-21.4 4.5-31.7 3.9-6.2-.4-6.9-.3-4.1.5 1.9.6 10.8 1.1 19.8 1.3 15.6.2 16.1.3 12 1.6-2.9 1-9.5 1.4-20.8 1.5-15.5.1-17-.1-25.5-2.8-10.9-3.4-17.7-6.8-27.2-13.5-21.5-15.2-36.1-46.2-33.9-71.7.8-8.2 5.3-23.5 9.5-32.1 1.5-3.2 3-6.3 3.2-6.8.2-.6 2-3.6 3.9-6.8 1.9-3.3 4.3-7.2 5.2-8.8 1-1.6 8.5-14.1 16.6-27.7 20.8-34.6 25.3-42.7 31.3-56.6 5.9-13.3 9.4-22.7 13.1-35 3.1-10.5 3.3-10.8 4.1-7.5.5 1.9 2.8 8.9 5.3 15.5z"/><path d="M685 300.8c0 .5.7 1.5 1.5 2.2.8.7 1.3 1.5 1 1.9-.6 1.1 8.1 7.4 16.7 12.1 9 4.8 12.8 4.8 12.8-.1 0-2.5-.5-3-4.2-3.9-9-2.4-15.1-5.1-24.5-11.1-1.8-1.2-3.3-1.6-3.3-1.1zm64 14.3c-5 1.2-16.4 1.5-24.2.5l-6.8-.8v5.2h10.1c10.3 0 20.5-1.9 24.3-4.6 2.3-1.6 1.8-1.6-3.4-.3zm-25.2 9.6c.7.3 1.6.2 1.9-.1.4-.3-.2-.6-1.3-.5-1.1 0-1.4.3-.6.6zM556.4 176.8c-7.9 3.8-10.8 10.2-10.3 23 .5 9.3 2.2 12.5 8.5 15.7 6 3 18.8 3.3 24.2.6 7.4-3.8 10.6-11 10-22.5-.4-8.5-3.1-13.1-9.5-16.1-5.7-2.8-17.7-3.1-22.9-.7zm-122.6-.1c-3.5.3-5.1 1-5.8 2.3-1.1 2.1 4.3 176.3 5.8 185l.7 4.5 17-.2c15-.2 17.1-.4 18.3-2 1-1.4 1.2-5.5.7-18.8-.4-9.4-1.9-51.3-3.4-93.3-2.2-63.9-2.9-76.5-4.1-77.2-1.4-.9-19.2-1.1-29.2-.3zM136.5 188c-.3.6.1.7.9.4 1.8-.7 2.1-1.4.7-1.4-.6 0-1.3.4-1.6 1zm235.3 19.1c-14 2.5-15.8 3.2-15.8 6.4 0 1.4 3.8 26.2 8.4 55.2 10.7 66.8 11 69 9.7 73.9-2.2 8.3-5.9 10.6-21.4 13.4-12.2 2.2-13.5 2.7-14.2 5-.6 2 2.1 20 3.6 24.2.6 1.4 2 2.8 3.1 3.1 2.7.7 28.3-3.8 35.6-6.2 22.7-7.7 32.2-22.7 30.9-49.1-.5-11.3-18-122.9-19.7-126.1-1.3-2.4-5.6-2.4-20.2.2zm-124.3 14.4c-.5.2-3.5 1.1-6.5 2-25.3 7.7-42.1 28.4-42 51.8 0 12.1 5.5 26.1 13.1 33.9 8.9 8.9 18.1 12.1 42.4 14.3 21 2 24.3 2.5 28.8 4.2 5.1 2.1 7.7 5.6 7.7 10.6 0 4.6-3.4 8.5-11.6 12.9-6.7 3.6-63.6 24.7-69.8 25.9-8.7 1.6-14.8-1.5-19-9.8-.9-1.8-7-17.7-13.6-35.4s-12.7-33.3-13.5-34.6c-.9-1.3-2.4-2.3-3.4-2.3-2 0-21.5 7.1-26.2 9.6-2 1-2.9 2.2-2.9 3.8 0 3.6 24.4 69.5 29.4 79.4 10 19.8 25.1 26.3 49.4 21.3 11.6-2.4 78.8-27 88.1-32.2 10.5-6 19.2-14 23.9-22.1 8.8-15.3 3.8-41.3-10.3-53.6-8.2-7.3-17-10.1-41-13.1-17.4-2.3-26.3-4.2-31-6.9-4.1-2.4-7.8-9.7-7.1-14.1 1.3-8.6 11.1-15.7 21.6-15.5 6.2 0 9.9 1.6 17.7 7.6 2.9 2.2 6 3.8 7 3.6 2.2-.4 17.2-21.6 17.3-24.3 0-2.1-5.4-7.8-10.2-10.8-1.5-.9-6.1-2.8-10.2-4.2-6-2-9.3-2.5-17.3-2.4-5.4 0-10.2.2-10.8.4z"/><path d="M540.5 239c-9.9 1-15.5 2.3-24.2 5.5-7.7 2.9-10.3 4.9-10.3 7.9.1 3.7 7.4 23.9 9.2 25 1.2.7 4 .2 10.5-1.7 12.8-3.8 25.2-5.7 38.3-5.7 30 0 41.4 10.9 41.2 39.5-.1 19.6-4.4 32.6-12.3 36.7-3.5 1.8-4 1.8-44-2.2-47.4-4.7-50.4-4.8-51.9-2-.6 1.1-1.4 7.4-1.7 13.9-.5 11-.5 11.9 1.3 12.9 1 .5 8.7 1.5 16.9 2.1 62.6 4.8 123.3 16.3 166 31.6 38.3 13.8 89.7 39.3 128.5 63.7 14 8.8 15.4 9.4 18.5 8 2.6-1.2 10.9-13.1 12.7-18.2 1.4-4.3-.5-6.7-9.9-12.5-15-9.3-30.8-20.3-36-24.9-10.2-9.2-11.8-18.7-5.3-31.7 5.3-10.6 9.5-15.5 15.6-18.5 4.8-2.4 6.3-2.6 12.2-2.1 8.8.7 17.8 4.2 29.3 11.3 19.8 12.1 20.7 12.6 22.8 11.9 2.4-.7 14.1-19 14.1-22s-2.6-5-17.7-14.4c-25.3-15.6-34.4-19.1-51.8-19.8-11-.5-12.6-.3-19.8 2.1-14.8 5-26.6 15.5-34.2 30.6-4.8 9.4-6.5 15.8-6.5 23.8v7.5l-3.5-.6c-1.9-.3-11-3.8-20.2-7.7-9.3-4-19.9-8.2-23.8-9.5-3.8-1.3-21.1-6.9-38.3-12.5-20.4-6.6-31.5-10.7-31.9-11.7-.4-.9 0-3 .7-4.7 6.9-16.6 9-30.3 7.2-48.5-1.9-18.7-7.6-33.6-16.5-42.9-8.3-8.7-24.1-15.9-40.7-18.5-11.8-2-33.9-2.8-44.5-1.7zM427.6 390.9c-2.1.5-4.2 1.4-4.7 2.2-.6.8-.8 6.2-.5 12.4.3 6 .9 41.9 1.2 79.7.4 37.8.9 72.4 1.3 77l.6 8.3h14.8c10.2 0 15.2-.4 15.9-1.2.6-.7.8-19.2.6-50.5l-.3-49.3 5.5-1.9c6.8-2.3 22.3-2.7 29.3-.7 6.3 1.8 10.2 6.3 11.6 13.3.5 2.9 1.3 23.7 1.6 46.3.4 22.5 1.1 41.4 1.5 42 .5.6 6.9 1 15.7.9l14.8-.1-.1-46.9c-.2-51.2-.6-55.4-6.1-65.6-3.1-5.7-6.6-8.9-13.3-12.3-10.6-5.4-31.8-7-50-3.9-8.9 1.5-9.4 1.5-10.7-.2-1-1.3-1.3-7.2-1.3-23.9 0-16.3-.3-22.6-1.3-23.9-1-1.4-3.2-1.8-11.7-2.1-5.8-.2-12.2 0-14.4.4zM297.1 399c-5.8 2.1-11.3 6.6-13.8 11.4-3.8 7.3 2.3 24.8 10.2 29.3 4.9 2.8 8.5 2.9 16.4.4 15.5-4.8 20.6-16.1 14.1-30.8-5.1-11.6-14-14.9-26.9-10.3zm63.7 4.6c-8.8 1.6-16.6 4.7-17.4 6.9-.4.8 1.7 11.2 4.6 23 2.8 11.8 5 22.2 4.8 23.2-.2 1.4-2.1 2-9.7 3-41.2 5.5-56.8 22.4-53.1 57.6 3.1 30 11.9 52.5 26.1 66.9 4.1 4.3 9.2 8.4 11.2 9.3 7.6 3.2 17.9 1.4 31.2-5.2 7.8-4 21.2-8.7 33.8-11.9 5.5-1.4 11.3-3.2 12.8-3.9 4.3-2.3 6.9-6.3 6.9-10.7 0-2.1-2.7-14.8-6-28.1-3.2-13.3-11.8-48-18.9-77.1-7.2-29.1-13.6-53.3-14.3-53.8-1.6-1-2.5-.9-12 .8zm2.3 91.4c8.7 34.9 13.9 56.8 13.9 58.7 0 3.1-3 4.9-15.5 8.9-24.6 8-32.1 2.8-39.9-27.7-6.2-24.1-5.8-32.7 1.6-40.1 6.7-6.7 18.7-10.8 30.3-10.5l6.9.2 2.7 10.5zM246 417.9c-8.1 2.5-13.9 7.1-16.5 13.3-2 4.9-1.9 6.5.6 14.3 2.6 7.7 7.6 13.9 12.5 15.5 9.5 3.2 25.9-4.3 29.3-13.3 3.7-9.8-2.2-24.8-11.6-29.6-2.4-1.2-10.5-1.3-14.3-.2zm337.3 35.3c-1.5 1.9-4.7 20.8-3.7 21.8.5.5 7.7 2.2 15.9 3.9 28.1 5.6 39 9.6 45.2 16.5 3.5 3.9 3.6 4 3 11-.6 8.1-2.3 13.6-4.1 13.6-.7 0-5-2.5-9.5-5.5-12-8-26.9-12.1-41-11.3-13.9.8-25.3 8.3-31.6 20.8-5.9 11.7-9.2 31.4-6.5 39.4 1.6 4.9 7.4 9.1 16.4 11.7 21.6 6.3 28.3 8.6 39.9 14 22.8 10.4 32.3 12.3 37.2 7.1 4.4-4.4 9.9-19.1 20-53.3 8.5-28.7 9.6-33.3 9.7-40.5.1-6.7-.4-9-2.7-14.2-7.7-17.2-31.3-27.9-76.2-34.7-12.3-1.8-10.8-1.8-12-.3zm30.7 73.9c1.9.5 6.4 2.4 10 4.2 8.7 4.3 9.2 5.7 5.5 18.4-5.5 18.7-5.8 18.9-16.3 14.4-3.9-1.6-11.3-4.1-16.5-5.6-5.3-1.5-10.5-3.6-11.6-4.7-6-5.5 2.3-25.1 11.6-27.6 4-1.1 11.3-.7 17.3.9zm-426.3-55.6c-7 1.9-20.7 8.7-28.9 14.2-10 6.7-18.3 15.4-22.1 23.2-3 6.2-3.2 7.2-3.2 17.6 0 19.4 5.1 31.2 35.2 81 34.8 57.6 35.7 59 38 59.3 1.4.2 4.1-1.2 7.6-4.1 2.9-2.4 8.1-6.1 11.5-8.3 3.4-2.1 6.2-4.6 6.2-5.5 0-1.7-.7-2.7-15.3-23-4.8-6.7-9-13.3-9.4-14.7-1.5-6.1 3.6-11.1 20.2-19.7 5.3-2.8 10.4-5.8 11.3-6.8 1.4-1.6 1.6-3.8 1.4-13.4-.2-6.4-.7-12.5-1.3-13.5-1.9-3.5-5.9-1.9-26.1 10.3-12.3 7.3-20.9 11.9-22.2 11.7-1.5-.2-4.5-4.5-11.3-16.3-18.2-31.5-19.9-42.9-8.3-54.2 10.6-10.3 24.7-13.6 34.1-8.1 10.4 6.1 10.9 6.9 62 95.8 7.1 12.3 13.1 21.6 14.1 21.8.9.2 4.6-1.7 8.3-4.2 3.7-2.5 8.7-5.3 11.1-6.3 3-1.2 4.7-2.6 5-4.1.5-1.7-5.2-12.5-24.1-45.5-13.6-23.7-28.1-48.3-32.2-54.6-9.6-14.5-20.5-25.4-29.9-30.1-6.3-3.1-7.8-3.4-16.9-3.7-6.3-.1-11.8.3-14.8 1.2zm526.8 24.9c-1.6.7-4.4 2.9-6.2 4.7-3.5 3.7-12.2 21.4-20.1 40.9-2.8 6.9-7.2 17.4-9.7 23.5-16 38.1-16.7 40-15.9 42.4 1.1 3 21.4 16.1 25 16.1 1.3 0 3-1 3.8-2.3.9-1.2 8.3-19.6 16.6-40.7 16.4-41.8 19.5-49 21.3-50.2 2.7-1.7 6.8-.5 19.9 5.8 17.6 8.4 19.1 8.3 23.1-.1 3.7-7.8 4.4-11.8 2.4-14.9-1.8-2.7-28.3-17.1-40.7-22-10.5-4.2-15.5-5-19.5-3.2zm100.3 17.3c-14.8 13.4-12.5 26.2 6.4 35.4 6.6 3.2 10.9 1.8 17.6-5.6 9.1-9.9 9.3-16.6 1-24.7-6.2-6-11.5-8.8-16.8-8.8-3.2 0-4.8.7-8.2 3.7zm-22 31c-7.2 7.9-75.8 94.5-75.8 95.8 0 .8 3.7 4.4 8.3 8 4.5 3.5 9 7.8 10 9.5 3.7 6.2-1.8 12.3 67.9-74.3 9.2-11.5 16.8-21.3 16.8-21.7 0-.5-.8-1.6-1.7-2.6-3-3-21.4-17.4-22.2-17.4-.4 0-1.9 1.2-3.3 2.7zm-387 43c-.4 4.9-.3 5.9.8 7.6.6 1 .9 2.8.6 3.9-.3 1.3.1 2.6 1.2 3.3.9.7 1.8 3.1 2.1 5.4.4 3.8.3 4-1.5 3.1-1-.5-3-1-4.4-1-1.4 0-2.7-.4-3-.9-.4-.5-1.4-.8-2.4-.6-.9.1-2.2-.2-2.8-.7-.7-.5-2.2-1.1-3.4-1.3-1.6-.3-2 0-1.6 1 .9 2.4-3.3 1.8-5.5-.8-1.4-1.6-1.7-1.7-1.3-.5.3 1 .1 1.8-.5 1.8s-1.1.5-1.1 1.1c0 .5.5.7 1.1.3.8-.4.8-.1.1 1.3-1 1.8-.8 2 2.3 2 1.9 0 3.2-.4 3-.8-.9-1.4 3.5-1.6 5.2-.2 1 .8 1.3 1.2.6.9-.6-.4-1.4-.2-1.8.4-.4.6-1 .8-1.5.5-.4-.3-.6.3-.4 1.2.7 3-2.2 5.5-6.2 5.7-2.1 0-3.6.5-3.3 1.1.2.5 1 .9 1.7.9.6-.1 1.2.7 1.2 1.7 0 1.1-.3 1.9-.7 1.8-1.6-.2-5.3 1.4-5.3 2.2 0 1.3 1.4 1.1 2.8-.3.6-.6 1.4-.9 1.7-.6.3.3-.1 1.2-.9 2-1.1 1.2-1.2 1.8-.3 2.9.7.7.3.6-.9-.4-1.8-1.5-2.3-1.5-4-.2-2.5 1.9-3.2 1.9-3-.3.1-1.1-.5-1.6-1.6-1.4-2.7.4-2.2-1.6.5-2.1 1.2-.2-.1-.5-2.9-.6-6-.1-57 6.6-56.2 7.4.6.6 31.3 9.4 43.8 12.6 13.9 3.5 17.8 4.1 18.7 2.6.4-.6.1-.7-.7-.2-.8.5-1.1.3-.8-.5.2-.8 1-1.6 1.8-1.8.9-.3 1.1.2.6 2.2-.4 1.6-.2 2.6.5 2.6s.9 1.3.5 3.7c-.4 3.1-.4 3.3.4 1.5.5-1.3 1.4-2 2-1.7.5.3.9-.2.8-1.2-.3-3.8.2-6.4 1.2-5.8.5.3.7 0 .4-.8-.3-.8-.1-1.8.4-2.1.6-.3.8-1.5.5-2.5-.3-1 .1-2.2.8-2.7.9-.5 1.1-.2.6.9-.4 1-.2 2.8.2 4 .7 1.9.5 2.7-1 3.7-2.6 1.9-3.2 3.9-1 3.3 1-.2 2.3.3 3 1.1.8.9.9 1.6.3 1.6-1.9 0-2 4.9-.1 6.6 1.8 1.6 1.9 1.5 2.6-1.7.4-1.9.6-3.7.5-4-.1-.4.8-.5 1.8-.2 1.1.3 2 1.3 2 2.3 0 1 .6 2 1.4 2.3 1 .4 1.3-.1 1-1.6-.2-1.2-.2-1.6.2-1 .9 2.1 2.2 1.5 3.2-1.5.9-2.4 1-2.5 1.1-.5.1 1.6.7 2.3 2.1 2.3 1.2 0 2-.6 1.9-1.3-.5-2.3 2.4-9.7 3.8-9.7.9 0 1.2.8.9 2.3-.2 1.3.3 3.9 1.2 5.7 1.3 2.6 1.4 4 .5 7.4-1.6 6.2-1.7 20.4-.1 22.3.7.9 1.2 1.9 1 2.2-.1.3 1.3.7 3.1.9l3.3.3-.9-8.8c-1.1-12.2-.6-23.9 1.1-23.5 1 .2 1.2-.7.9-3.3-.3-1.9-.1-3.5.4-3.5s.9-.5.9-1.1c0-.5-.4-.7-1-.4-.5.3-1 .1-1-.5s-.5-.8-1.2-.4-.8.3-.4-.4c.4-.6 1.3-.9 2.1-.5 1.1.4 1.5-.2 1.5-2.2 0-5.2 1.7-1.4 1.8 4.2.2 6.5.5 8.7 1.6 12.4.7 2.5 1.5 2.8 14.4 5.2 7.5 1.5 16.1 2.9 19 3.3 2.9.4 5.9 1.2 6.5 1.8.7.6 2 1.2 3 1.2 1.3.2 1.5-.1.7-1.1-.6-.8-.9-4.3-.7-8.7l.3-7.3.2 7.6c.2 8.2.7 8.9 5.8 8.9 1.3 0 2.4.4 2.4.9 0 1.2-8.9 7.1-10.7 7.1-2.4 0-7.5 3.1-10 6-3.2 3.8-7.8 5.3-12.3 4-7.6-2.3-13-2.9-15.6-1.9-3.3 1.2-2.6 2 2.3 2.9 3.3.7 2.8.8-2.9.9-3.8 0-6.8.5-6.8.9 0 .9.8 1 9.9 1.8 7.7.7 21.1-1.1 26.6-3.6 2.2-1 6.9-4.3 10.5-7.4 8.3-7.2 18.4-12.2 28.3-14.1 4.2-.8 12.6-3 18.5-4.9 16.9-5.5 43.6-11.6 44.9-10.3.2.3-2 1.3-4.9 2.2-2.9.9-9.3 3.8-14.3 6.5-4.9 2.6-13.3 6.1-18.5 7.9-16.1 5.4-15.9 6.1 1.6 6.1 8.2 0 19.3-.7 24.7-1.5 12.2-1.8 41.9-9.3 57.2-14.5 9.8-3.2 11.5-3.6 11.5-2.2 0 1-.4 2.2-.8 2.7-.9 1.4-30.4 9.8-43.2 12.4-5.2 1.1-14.8 2.5-21.2 3.2-6.4.7-11.5 1.6-11.3 1.9.3.4 2.6 1 5.2 1.3 9.2 1.2 24.8 3.7 26.2 4.2 1 .4.1 1.3-2.5 2.7-6 3.2-22.1 13.7-23.5 15.4-.6.8-1 1.7-.7 1.9.7.8 30.1-2.4 38.1-4.1 3.9-.8 11.9-2.8 17.8-4.5l10.6-3.1 12.4 3.2c12.6 3.2 15.1 4.3 13.3 5.9-.8.8-26 4.9-71.4 11.7-9.6 1.4-22.7 3.4-29 4.5-41.8 6.9-64 10-69.5 9.7-4.4-.3-10.6-2.2-23-7-9.3-3.7-27.8-10.7-40.9-15.7-13.2-5-24.2-9.5-24.5-9.9-.3-.5-3.7-2-7.6-3.5-39-14.6-44.4-17.2-48.8-23.2-1.6-2.2-6-10.3-9.9-17.9-6.8-13.5-7.1-13.9-8.7-11.9-1 1.3-3.3 2.3-6.1 2.7-11.1 1.4-16.5 5-14.1 9.4 2.2 4.1 27.5 24.8 42.6 34.9 45 30 94.1 47.3 147.8 52.4 18.2 1.7 57.4.7 74.2-1.9 25.5-4 49.2-10.3 72-19.4 30.4-12.1 73.7-38.2 77.2-46.6 2.3-5.4 1.2-11.6-2.6-15.6-2.1-2.2-2.9-3.7-2.5-5.3.8-2.9-2.2-4.3-9.4-4.6-4.4-.1-9.5 1-22.6 5.1-9.3 2.9-17 5.1-17.1 5-.4-.6-2.5-7.1-2.5-7.8 0-.4 1.8-2 4.1-3.4 4.5-3 4.5-3.5-.3-4.5-2.3-.5-3.2-1.2-3-2.4.2-.9-.2-1.7-.8-1.7-.6 0-.8-.5-.5-1.1.4-.6-.2-1.3-1.4-1.6-1.1-.3-1.8-.9-1.5-1.4.3-.5-.1-.9-.9-.9-2.2 0-4.1-2.7-2.5-3.4.9-.4.9-.5-.2-.5-4.4.3-5.1-.1-4.5-2.3.8-2.2.8-2.2-4.1-.2-1.2.5-3.5-3.9-3-5.8.1-.7.1-1-.1-.5-.3.4-1 .4-1.5.1-.7-.4-.8-.2-.4.5.4.6 0 1.8-.8 2.6-1.3 1.4-1.6 1.2-2.5-2-.5-1.9-1.6-4.1-2.4-4.9-1.2-1.3-1.4-.7-1 4.7.3 6 .3 6.1-1.2 3.4-1.7-2.9-3.1-3.7-2.1-1.1.4 1.1-.2 1-2.4-.6-2.5-1.8-5-2.3-13.4-2.7-17.9-.9-24.1 1.6-44.6 18.1-17.7 14.4-30 17.7-53.6 14.5-5.3-.7-10.4-.7-15.8 0-5.6.7-8.6.6-10.3-.2-2.4-1.1-2.5-1.4-2-9.1.3-6.3.7-8 1.8-7.8 4.2 1.1 5.9 1.1 5.9.2 0-.5-.6-1-1.2-1-.8 0-.9-.3-.3-.8 3.1-2.1 0-13.5-3.3-12.4-1.1.3-1.2 0-.3-1.7 1.3-2.3 3.7-2.8 4.4-.9.4.8.6.7.6-.4.1-.9.4-1.8.9-2.1.4-.2.1-.2-.7 0-.8.2-1.8-.2-2.3-.9-.6-1-.8-1-.8-.1 0 .7-.9 1.7-2 2.3-1.1.6-2 .7-1.9.3.3-1.9-.2-2.3-1.5-1.1-.8.7-1.1 1.7-.8 2.3.3.5-.1.4-1-.2-2.1-1.8-3.1-.3-1.2 1.8 1.1 1.2 1.2 1.9.4 2.4-.7.4-1.6.2-2-.6-.6-1-1.3-.5-2.7 1.8-1.5 2.7-2.8 3.7-5.8 4.2-.3.1-.5-.2-.6-.7 0-.4-.5-1.3-1.1-2-1.7-2 2-4.2 5-3.1 1.7.7 2.4.5 2.9-.7 1.1-2.9-3.5-4.5-5.9-2-1.6 1.5-7.8 2.7-7.8 1.4 0-.4-.9-.8-2.1-.8-1.3 0-1.8-.4-1.3-1.2.5-.7.3-.8-.6-.3-.7.4-1.5.2-1.9-.4-.4-.7-2.8-1.3-5.2-1.3-2.4-.1-4.7-.7-5.1-1.2-.5-.8-1.3-.7-2.7.1-1.6 1-1.8.9-1.4-.7.3-1.1 1.1-2.4 1.8-3 .8-.6 1.1-1.9.8-2.8-.6-1.4-.5-1.5.9-.2.9.8 1.2 1.7.7 1.8-.5.2-.7.8-.3 1.3.3.5-.1.9-.8.9-.8 0-.6.5.5 1.1 1.2.7 2.2.7 3.1 0 .6-.5 3.1-1.3 5.4-1.7 2.3-.4 4.5-1.1 4.8-1.6.9-1.4-9.3.8-11.5 2.6-1.2.9-1.3.8-.4-.9.6-1.1.9-2.8.8-3.7-.2-1 .4-2.2 1.2-2.7 2.7-1.5-.2-2.1-3-.6-1.5.8-2.7 1.2-2.7.9 0-.2-1.2.3-2.6 1.3-2.6 1.7-2.7 1.7-1.6-.2 2.6-4.5 6.8-8.4 8.3-7.4 1.9 1.2 2.9 1.1 2.9-.2 0-.5-.4-.8-.9-.4-.5.3-1.5-.1-2.3-.8-1.1-1.1-1.7-1-3.5.9-1.2 1.2-1.9 2.5-1.6 2.8.4.3-.1.6-1 .6s-1.7.5-1.7 1.1c0 .5-.5.7-1.1.4-.6-.4-.8-1.3-.5-2.1.3-.8.1-1.4-.3-1.4-.5 0-.7-1.9-.5-4.3.3-3.6.2-3.8-.5-1.2-.5 1.6-.9 2.4-1 1.7 0-.7-.6-1-1.2-.6-.6.3-.9 1.7-.6 3 .3 1.9.1 2.2-.9 1.3-1-.8-1.2-.5-.8 1.7.5 2.8.5 2.8-1.5 1-1.1-1-1.8-2.3-1.5-2.7.7-1.3-.6-5-1.5-4.4-.5.2-.8-.7-.8-2.1 0-2.9-.7-3.9-2.3-2.9-1 .6-.8 2.2.8 6.5.5 1.3.4 1.3-1 0-1.1-1-1.5-2.7-1.2-5.3.2-2 .1-3.7-.1-3.7-.3 0-.6.8-.7 1.7zM413 604c0 .5-.4 1-1 1-.5 0-1-.5-1-1 0-.6.5-1 1-1 .6 0 1 .4 1 1zm3.4-.2c.2.4 0 1.4-.6 2.2-.8 1.2-.9 1.2-.5-.2.3-.9.1-1.9-.6-2.2-.9-.3-.9-.5 0-.5.6-.1 1.4.3 1.7.7zm-16.4 7.3c0 1.3-2.7 1.1-3.6-.3-.4-.7-.3-.8.4-.4s1.2.2 1.2-.4c0-.6.5-.8 1-.5.6.3 1 1 1 1.6zm7 .5c0 .8-1.9 1.3-2.4.6-.3-.5.1-.9.9-.9s1.5.2 1.5.3zm-7 2.9c0 .2-.9.3-1.9.2-1.1 0-1.8-.5-1.5-.9.4-.6 3.4 0 3.4.7zm14.9 5.4c.1 1.1-.2 1.1-1.4.1-1.4-1.2-1.9-.6-1.7 2 0 .3-1 .7-2.4.8-1.3.1-2.4-.3-2.4-.9 0-.6.6-.9 1.4-.6.9.3 2.1-.4 3-1.9 1-1.3 1.2-2.4.6-2.4-.7 0-.6-.6.2-1.4 1.1-1.2 1.4-1.1 2 .8.3 1.1.6 2.7.7 3.5zm10.5-2.4c.3.8.1 1.5-.4 1.5-.6 0-1-.7-1-1.5s.2-1.5.4-1.5.6.7 1 1.5zM441 619c0 .5-.2 1-.4 1-.3 0-.8-.5-1.1-1-.3-.6-.1-1 .4-1 .6 0 1.1.4 1.1 1zm165.9 2.5c1.2 1.4 2.8 2.2 3.5 1.8.6-.3.2.3-.9 1.4-2 2-2 2-4.2-.6-4.1-4.6-2.6-7 1.6-2.6zm-214.9 1c0 1.4-.4 2.5-.9 2.5-.4 0-.6-1.1-.3-2.5.2-1.4.6-2.5.8-2.5.2 0 .4 1.1.4 2.5zm53.3.5c1.1 1.3 1.3 2 .4 2-.7.1-.6.5.5 1.3 1.8 1.4 2.7 4.1 1.6 4.5-.5.1-.8-.1-.7-.4.1-.7-5.2-4.2-9.1-6l-2.5-1.2 2.6-.1c1.4-.1 3 .4 3.7 1.1.6.6 1.5.9 1.9.5.3-.4-.2-1.4-1.3-2.2-1.5-1.1-1.6-1.4-.4-1.5.9 0 2.3.9 3.3 2zm155.7-.9c1.2.9 1.1 1-.7.6-1.2-.3-2.4 0-2.7.7-.2.6-.5.3-.5-.7-.1-1.9 1.6-2.2 3.9-.6zm-137 1c0 1.1-2.7 1.2-3.4.1-.2-.4.4-.9 1.5-.9 1-.1 1.9.2 1.9.8zm150.7 3.5c-.2.3-1.1.2-2-.2-1.4-.5-1.4-.7.1-2.2 1.6-1.6 1.7-1.6 2 .1.2 1 .2 2.1-.1 2.3zM389 623.4c0 .3-.4.8-1 1.1-.5.3-1 .1-1-.4 0-.6.5-1.1 1-1.1.6 0 1 .2 1 .4zm80.1 1.5c.6-1 .9-.8.9.8 0 1.3-.4 2.3-1 2.3-.5 0-1-.2-1-.4s-.2-1-.3-1.8c-.2-.7-.2-.9.1-.4.2.4.8.2 1.3-.5zm-62.3 3.7c-.3 1.4-.5 1.2-1-.9-.3-1.9-.2-2.5.4-1.9.6.6.8 1.8.6 2.8zm32.3-1.6c3.1 2.5 1.8 2.5-2.3 0-2-1.2-2.6-2-1.7-2 .9 0 2.7.9 4 2zm158.9.8c0 1.5-.2 1.5-1 .2-1.3-2-1.3-3.3 0-2.5.6.3 1 1.4 1 2.3zm-171 .2c0 .5-1 1-2.2 1-1.9 0-2-.2-.8-1 1.9-1.3 3-1.3 3 0zm15.6 3.7c-1 1-1.9-.5-1-1.8.6-1.1.8-1.1 1.2 0 .2.7.1 1.5-.2 1.8zm174.8-1.1c.3.8.2 1.2-.4.9-.6-.3-1-1-1-1.6 0-1.4.7-1.1 1.4.7zm-191.4.6c0 .4-.6.8-1.2.8-.9 0-.8.4.2 1 1.3.8 1.2 1-.2 1-1.1 0-1.8-.7-1.8-1.8 0-1 .7-1.9 1.5-1.9s1.5.4 1.5.9zm175 .8c0 .5-.8 1-1.7 1-1.5 0-1.6-.2-.3-1 1.9-1.2 2-1.2 2 0zm-155 1.5c.7.9.8 1.5.2 1.5-.5 0-1.2-.7-1.6-1.5-.3-.8-.4-1.5-.2-1.5s.9.7 1.6 1.5zm-66.3.1c-.3.3-1.2.4-1.9.1-.8-.3-.5-.6.6-.6 1.1-.1 1.7.2 1.3.5zm18.3 1.9c0 2.1-.2 2.4-1.3 1.3-1-.9-1.1-1.6-.3-2.5 1.5-1.7 1.6-1.6 1.6 1.2zm239.7 0c.7 2.1-.4 3.2-1.9 1.7-.9-.9-.9-1.2.3-1.2s1.2-.2-.1-1c-1-.7-1.1-1-.2-1 .7 0 1.5.7 1.9 1.5zm-257.1 2.1c0 1.2-.4 2-.8 1.7-.5-.2-.8.1-.8.6 0 .6-.7 1.1-1.6 1.1-.8 0-1.3-.4-1-.9.4-.5.1-1.1-.6-1.3-2.1-.7 0-3.8 2.5-3.6 1.9.2 2.4.8 2.3 2.4zm45-1.4c.4.6.1.9-.7.6-.8-.3-1.9.4-2.6 1.6-1.2 2.1-1.2 2-1.3-.4 0-1.9.6-2.6 2-2.7 1.1-.1 2.3.3 2.6.9zm28.7.8c.3 1.1.1 1.8-.4 1.4-.5-.3-.9-1.2-.9-2 0-2 .7-1.7 1.3.6zm143.2-.8c-1.1.6-2.6 2-3.4 3.1-1.4 2-1.5 2-2.1.2-.9-2.6.7-4.1 4.4-4.3 2.8-.2 2.9-.1 1.1 1zm-146.9 1.2c1 .8 1.7 1.6 1.4 1.9-.8.8-5-1.1-5-2.3 0-1.4 1.3-1.3 3.6.4zm-55.2 2.3c-.1 1.6-.2 4.5-.3 6.5-.1 2.9-.5 3.8-1.8 3.8-1.4 0-1.5-.2-.5-.9.8-.4 1.3-1.7 1.2-2.7-.4-3.9 0-9.4.8-9.4.4 0 .7 1.2.6 2.7zm47.1-1.7c.3.5-.1 1-1 1s-1.3-.5-1-1c.3-.6.8-1 1-1 .2 0 .7.4 1 1zm-70.5 2c1.2.8.9 1-1.3 1-1.6 0-2.6-.4-2.2-1 .8-1.2 1.6-1.2 3.5 0zm47 .5c0 .2-.6.5-1.3.8-.8.3-1.4-.1-1.4-.8 0-.7.6-1.1 1.4-.8.7.3 1.3.6 1.3.8zm42 .3c0 3 1.2 3.3 3.1 1l1.9-2.1v3.6c0 2.1-.2 3.7-.5 3.7-.2 0-2.2-.9-4.4-2-4.7-2.5-6.2-6-2.5-6 1.7 0 2.4.6 2.4 1.8zm164 .3c0 .5-.4.9-1 .9-.5 0-1-.7-1-1.6 0-.8.5-1.2 1-.9.6.3 1 1 1 1.6zm-181.5 2.6c-.1 2.1.1 4.2.5 4.8 1 1.5 2.2 5.1 1.4 4.2-.4-.4-1.8.3-3.1 1.5-2.5 2.4-3.2.9-.7-1.6 1.5-1.5 1.5-2.7-.2-9.9-.5-2-.3-2.7.9-2.7 1.1 0 1.4.9 1.2 3.7zm152.5-1.8c0 2.2-1.3 3.9-2.6 3.4-1.7-.6-1.8-3-.1-3.6 1.9-.8 2.7-.8 2.7.2zm-157.8 3.3c-.7.7-1.2.8-1.2.2 0-.6.3-1.4.7-1.7.3-.4.9-.5 1.2-.2.2.3-.1 1.1-.7 1.7zm185.8-1.8c0 .3-.4.8-1 1.1-.5.3-1 .1-1-.4 0-.6.5-1.1 1-1.1.6 0 1 .2 1 .4zm12 4.3c0 1.6.4 3.4.9 4.2 1.1 1.7.3 4.1-1.3 4.1-.7 0-1.1-2-1.1-5.5 0-3 .3-5.5.8-5.5.4 0 .7 1.2.7 2.7zm-31.3 3c-.3 1-.5.2-.5-1.7s.2-2.7.5-1.8c.2 1 .2 2.6 0 3.5zm17.5-1.5c-.7.7-1.2.8-1.2.2 0-1.4 1.2-2.6 1.9-1.9.2.3-.1 1.1-.7 1.7zm-23.6 2.5c-1 1-1.9-.5-1-1.8.6-1.1.8-1.1 1.2 0 .2.7.1 1.5-.2 1.8zm25.6 3.3c.4 0 .8-.7.8-1.5 0-2.5 1.5-1.7 2.7 1.4 1 2.9 1 2.9-3.3 4-2.3.6-4.5 1.1-4.8 1.1-1 0-.6-3.5.7-6.3 1.1-2.5 1.2-2.6 2.1-.7.5 1.1 1.3 2 1.8 2zm5.5.2c-.3.7-.5.2-.5-1.2s.2-1.9.5-1.3c.2.7.2 1.9 0 2.5zm-143.4 1.5c-.7.2-2.1.2-3 0-1-.3-.4-.5 1.2-.5 1.7 0 2.4.2 1.8.5zm138.6 20.9c.2.2-3.2.3-7.5.2-5.6-.1-7-.3-4.9-.9 2.7-.6 11.4-.1 12.4.7zM385 592.9c0 .5.5 1.3 1 1.6.6.3 1 .2 1-.4 0-.5-.4-1.3-1-1.6-.5-.3-1-.2-1 .4z"/><path d="M400.9 596.5c1.7 3.3 3.1 5.1 3.1 4 0-.6-1-2.1-2.1-3.5-1.3-1.7-1.7-1.8-1-.5zm-12.8 1.1c0 1.1.3 1.4.6.6.3-.7.2-1.6-.1-1.9-.3-.4-.6.2-.5 1.3zm5.4-.6c.3.5.8 1 1.1 1 .2 0 .4-.5.4-1 0-.6-.5-1-1.1-1-.5 0-.7.4-.4 1zm45 0c-.3.5-.1 1 .4 1 .6 0 1.1-.5 1.1-1 0-.6-.2-1-.4-1-.3 0-.8.4-1.1 1zm-41.5 2.3c0 .8.7 1.7 1.5 2.1.8.3 1.5.3 1.5 0s-.7-1.2-1.5-2c-1.3-1.3-1.5-1.3-1.5-.1zm119.3 3.3c1.5.8 3.3 1.2 3.9.8.7-.5.9-.2.5.9s-.2 1.4.9 1c1.2-.4 1.2-.8.2-2.1-1.1-1.3-.9-1.4 1.5-.8 1.9.4 2.6.3 2.2-.4-.8-1.4-3.8-1.3-5.3.2-.9.9-1.5.9-2.4 0-.7-.7-1.9-1.2-2.7-1.2-.9.1-.4.7 1.2 1.6zm-115.7.4c-1.5.5-1.6.9-.7 1.4.7.5 1.8.3 2.4-.3 1.4-1.4.6-2-1.7-1.1zm4.5 2.2c1.1 2.1 1.1 2.2-.4.9-1-.7-1.7-.9-1.7-.3 0 1.3 2.6 2.3 4.5 1.6 1.8-.7 1.2-2-1.6-3.5-1.9-1-2-.9-.8 1.3zm101.4-1.3c-.6.5-2.3 1.1-3.9 1.3-3.8.4-4.5 2.5-1.2 3.8 1.4.5 2.6 1.4 2.6 1.9 0 .6 1.7 1.5 3.8 2 4.3 1.3 7.7 1.4 4.7.2-1.9-.8-1.9-.8.2-1.9 1.2-.7 2.9-.9 3.8-.6 1.4.6 1.4.8-.2 2-1.2.8-.2.7 2.9-.4 3.6-1.3 4.4-1.8 3-2.4-2.6-1-3.9-.9-2.2.2 1.7 1.1.1 1.3-2.5.4-1.3-.6-1.4-.9-.3-1.6.8-.6.4-.7-1.2-.2-1.4.4-3.4.7-4.5.6-1.6-.1-1.7.1-.5.8.8.5 1.2 1 .8 1-.3 0-1.3.3-2.1.6-1.2.4-1.4 0-1-1.6.4-1.3 0-2.6-.8-3.1-1.2-.7-1.1-.9.2-.9.8 0 2.1.6 2.8 1.2 1.1 1 1.3 1 .7 0-.5-.9.3-1.2 3-1.2 5.6 0 3.5-1-2.4-1.1-2.8-.1-4.9-.6-4.6-1 .7-1.2 0-1.1-1.1 0zm20.5.2c0 .5.5.7 1 .4.6-.3 1-.1 1 .4 0 .6.5 1.1 1.1 1.1.8 0 .8-.5-.1-1.5-1.4-1.7-3-2-3-.4zm10.3 1.7c1.8 2 1.8 2.1 0 3.1-1 .6-1.3 1.1-.7 1.1 1.2 0 3.4-2 3.4-3.2 0-.4-1-1.3-2.2-1.9-2.3-1.2-2.3-1.2-.5.9z"/><path d="M534.5 607c-.4.6-1.5.8-2.5.5-1.5-.5-1.8-.2-1.5 1.4.4 2.4.2 2.5-2.8 1-2-.9-2.1-.9-.4.4 1.4 1.1 1.5 1.6.5 2-.7.3 0 .4 1.5.3 3.4-.3 6.1-2.6 3.2-2.7-1.7 0-1.6-.2.5-1.1 1.4-.6 2.9-1 3.3-.9.5.1.6-.3.2-.9-.8-1.3-1.2-1.3-2 0zm-156 5c.3.6.1 1-.6 1s-1 .3-.6.6c.3.3 1.3.2 2.2-.4 1.6-.8 1.6-.9.1-1.5-1-.4-1.5-.3-1.1.3zm144 1c.3.5.8 1 1.1 1 .2 0 .4-.5.4-1 0-.6-.5-1-1.1-1-.5 0-.7.4-.4 1zm-63 1c.3.5.8 1 1.1 1 .2 0 .4-.5.4-1 0-.6-.5-1-1.1-1-.5 0-.7.4-.4 1zm-80.5 1c-.8.5-1.2 1.1-.9 1.4.2.3 1.1.1 1.9-.4.8-.5 1.2-1.1.9-1.4-.2-.3-1.1-.1-1.9.4zm-6 1.8c0 .5.7 1.3 1.6 1.6 1 .4 1.4.1 1.2-.6-.5-1.5-2.8-2.3-2.8-1zm251.4 2.4l-1.9 2.3 2.3-1.9c1.2-1.1 2.2-2.1 2.2-2.3 0-.8-.8-.2-2.6 1.9zm-167.8 2.5c-.6 1.4-.5 1.5.5.6.7-.7 1-1.5.7-1.8-.3-.3-.9.2-1.2 1.2zm20.5.2c-.8.5-.9 1.1-.3 1.5.5.3 1.2-.1 1.6-.9.6-1.7.6-1.8-1.3-.6zm2.9.7c0 1.2.3 1.4 1.3.6 1.7-1.4 4 2 3 4.4-.4 1.2-.2 1.5.8 1.2 1.7-.6 1.3-4.5-.6-6.5-1.9-1.8-4.5-1.6-4.5.3zm-4.1 4.6c-.1 1.3-.2 4.3-.3 6.8-.1 2.5-.5 5.1-1 5.8-.4.7-.5 1.6-.1 2 .3.3 1 0 1.6-.8.8-1.3 1-1.3 1.9 0 .7 1.1 1 1.1 1 .2 0-.7.5-1 1.1-.6.8.5 1-.1.7-2-.3-1.4-.1-2.6.3-2.6.5 0 .9.7.9 1.7 0 .9.2 1.4.5 1.2.9-1-.8-7.9-2-7.9-.7 0-1.5-.7-1.8-1.4-.4-1.1-.1-1.3 1-.9 2.2.9.8-1.4-1.8-2.7-1.6-.9-1.9-.7-2 1.2zm3 10.2c-.3.3-1.1-.5-1.8-1.7-1.3-2.1-1.2-2.1.5-.5 1 1 1.6 2 1.3 2.2zm-63.1 52.3c.6.2 1.8.2 2.5 0 .6-.3.1-.5-1.3-.5-1.4 0-1.9.2-1.2.5zm-10.3 164.2c-.3.5-.2 1.2.3 1.5.5.3.9-.1.9-.9 0-1.7-.3-1.9-1.2-.6zm263.2 12.2c.7.7 1.5 1 1.8.7.3-.3-.2-.9-1.2-1.2-1.4-.6-1.5-.5-.6.5zm-226.1 58.6c-.6 1.4-.5 1.5.5.6.7-.7 1-1.5.7-1.8-.3-.3-.9.2-1.2 1.2zm-65.7 4c-1.3 1.6-1.2 1.7.4.4.9-.7 1.7-1.5 1.7-1.7 0-.8-.8-.3-2.1 1.3zm336 0c-1.3 1.6-1.2 1.7.4.4 1.6-1.3 2.1-2.1 1.3-2.1-.2 0-1 .8-1.7 1.7z"/></svg>