<svg id="Munakka" xmlns="http://www.w3.org/2000/svg" xmlns:xlink="http://www.w3.org/1999/xlink" width="9.746" height="24" viewBox="0 0 9.746 24">
  <defs>
    <clipPath id="clip-path">
      <rect id="Rectangle_48" data-name="Rectangle 48" width="9.746" height="24" fill="#850b5a"/>
    </clipPath>
  </defs>
  <g id="Group_69993" data-name="Group 69993" clip-path="url(#clip-path)">
    <path id="Path_107" data-name="Path 107" d="M.829,220.2a.811.811,0,0,1-.8-.8V217.73a.811.811,0,0,1,.8-.8H8.972a.811.811,0,0,1,.8.8v1.963H9.694a.812.812,0,0,1-.741.513Zm8.14-2.7H.829a.233.233,0,0,0-.226.23v1.67a.233.233,0,0,0,.23.227H8.95a.233.233,0,0,0,.227-.23l0-.283H9.2V217.73a.233.233,0,0,0-.23-.226" transform="translate(-0.026 -196.203)" fill="#850b5a"/>
    <path id="Path_108" data-name="Path 108" d="M.829,192.182a.811.811,0,0,1-.8-.8v-1.676a.811.811,0,0,1,.8-.8H8.972a.811.811,0,0,1,.8.8v1.963H9.694a.812.812,0,0,1-.741.513Zm8.14-2.7H.829a.233.233,0,0,0-.226.23v1.67a.233.233,0,0,0,.23.227H8.95a.233.233,0,0,0,.227-.23l0-.283H9.2v-1.387a.233.233,0,0,0-.23-.227" transform="translate(-0.026 -170.859)" fill="#850b5a"/>
    <path id="Path_109" data-name="Path 109" d="M.816,164.161a.792.792,0,0,1-.787-.779v-1.695a.811.811,0,0,1,.8-.8H8.972a.811.811,0,0,1,.8.8v1.963H9.694a.812.812,0,0,1-.741.513H.816m8.153-2.7H.829a.233.233,0,0,0-.226.23v1.682a.218.218,0,0,0,.218.215H8.95a.233.233,0,0,0,.227-.23l0-.283H9.2v-1.387a.23.23,0,0,0-.23-.227" transform="translate(-0.026 -145.516)" fill="#850b5a"/>
    <path id="Path_110" data-name="Path 110" d="M.816,136.141a.792.792,0,0,1-.787-.779v-1.695a.811.811,0,0,1,.8-.8H8.972a.811.811,0,0,1,.8.8v1.963H9.694a.811.811,0,0,1-.741.513H.816m8.153-2.7H.829a.233.233,0,0,0-.226.23v1.682a.216.216,0,0,0,.066.153.206.206,0,0,0,.155.061H8.95a.233.233,0,0,0,.227-.23l0-.283H9.2v-1.387a.233.233,0,0,0-.23-.226" transform="translate(-0.026 -120.173)" fill="#850b5a"/>
    <path id="Path_111" data-name="Path 111" d="M.816,108.12a.792.792,0,0,1-.787-.779v-1.695a.811.811,0,0,1,.8-.8H8.972a.811.811,0,0,1,.8.8v1.963H9.694a.812.812,0,0,1-.741.513H.816m8.153-2.7H.829a.233.233,0,0,0-.226.23v1.682a.218.218,0,0,0,.218.215H8.95a.233.233,0,0,0,.227-.23l0-.283H9.2v-1.387a.233.233,0,0,0-.23-.226" transform="translate(-0.026 -94.829)" fill="#850b5a"/>
    <path id="Path_112" data-name="Path 112" d="M35.97,25.042H32.719V23.353H35.97Zm-2.677-.573h2.1v-.542h-2.1Z" transform="translate(-29.593 -21.122)" fill="#850b5a"/>
    <path id="Path_113" data-name="Path 113" d="M.714,42.3H.7a.728.728,0,0,1-.7-.753c0-.013,0-.026,0-.039V39.755a13.833,13.833,0,0,1,1.29-2.476c1.345-2.251,1.515-2.251,1.7-2.251H6.514c.173,0,.352,0,1.7,2.251A13.833,13.833,0,0,1,9.5,39.755V41.5a.729.729,0,0,1-.644.787l-.057,0Zm.006-.573H8.792a.155.155,0,0,0,.137-.172l0-.032V39.782a31.722,31.722,0,0,0-2.5-4.18H3.078a31.748,31.748,0,0,0-2.5,4.18l0,1.78a.155.155,0,0,0,.146.161" transform="translate(0 -31.682)" fill="#850b5a"/>
    <path id="Path_114" data-name="Path 114" d="M17.9,220.414H14.928a.856.856,0,0,1-.889-.755V217.9a.838.838,0,0,1,.889-.733H17.9v.573H14.928c-.157,0-.316.1-.316.16v1.763c0,.064.162.182.316.182H17.9Z" transform="translate(-12.698 -196.414)" fill="#850b5a"/>
    <path id="Path_115" data-name="Path 115" d="M17.672,192.605H14.883a.863.863,0,0,1-.841-.735l0-.043,0-1.682a.867.867,0,0,1,.835-.768h2.8v.573H14.883a.29.29,0,0,0-.271.245V191.8a.289.289,0,0,0,.277.229h2.783Z" transform="translate(-12.698 -171.283)" fill="#850b5a"/>
    <path id="Path_116" data-name="Path 116" d="M17.9,164.373H14.928a.818.818,0,0,1-.889-.733v-1.762a.856.856,0,0,1,.889-.755H17.9v.573H14.928c-.153,0-.316.118-.316.182v1.762c0,.078.162.16.316.16H17.9Z" transform="translate(-12.698 -145.727)" fill="#850b5a"/>
    <path id="Path_117" data-name="Path 117" d="M17.9,136.352H14.928a.818.818,0,0,1-.889-.733v-1.763a.856.856,0,0,1,.889-.755H17.9v.573H14.928c-.153,0-.316.118-.316.182v1.763c0,.078.162.16.316.16H17.9Z" transform="translate(-12.698 -120.384)" fill="#850b5a"/>
    <path id="Path_118" data-name="Path 118" d="M17.9,108.331H14.928c-.431,0-.889-.241-.889-.688V105.88a.908.908,0,0,1,.889-.8H17.9v.573H14.928c-.133,0-.316.144-.316.227v1.763c0,.032.14.115.316.115H17.9Z" transform="translate(-12.698 -95.04)" fill="#850b5a"/>
    <path id="Path_119" data-name="Path 119" d="M48.027,42.929H45.06v-.573h2.967c.154,0,.316-.118.316-.182V40.464c-.018-.146-.265-1.05-.606-2.113a10.5,10.5,0,0,0-.8-2.108.223.223,0,0,0,.157.059v-.573c.224,0,.4,0,1.151,2.318a22.062,22.062,0,0,1,.675,2.409v1.718a.856.856,0,0,1-.889.755m.316-2.473v0Z" transform="translate(-40.755 -32.315)" fill="#850b5a"/>
    <path id="Path_120" data-name="Path 120" d="M17.9,42.929H14.928a.856.856,0,0,1-.889-.755V40.456a22.062,22.062,0,0,1,.675-2.409c.751-2.318.927-2.318,1.151-2.318V36.3a.223.223,0,0,0,.157-.059,10.5,10.5,0,0,0-.8,2.108c-.341,1.062-.588,1.966-.606,2.113v1.709c0,.064.162.182.316.182H17.9Zm-3.283-2.473v0Z" transform="translate(-12.698 -32.315)" fill="#850b5a"/>
    <rect id="Rectangle_43" data-name="Rectangle 43" width="5.355" height="0.573" transform="translate(2.074 3.347)" fill="#850b5a"/>
    <path id="Path_121" data-name="Path 121" d="M28.414,3.028H23.378V1.269c0-.011,0-.028,0-.045A1.249,1.249,0,0,1,24.652,0h2.538a1.249,1.249,0,0,1,1.223,1.274Zm-4.462-.573H27.84V1.269a.676.676,0,0,0-.662-.7H24.646a.676.676,0,0,0-.7.662c0,.009,0,.018,0,.027Z" transform="translate(-21.144 0)" fill="#850b5a"/>
    <rect id="Rectangle_44" data-name="Rectangle 44" width="0.573" height="0.892" transform="translate(2.903 1.849)" fill="#850b5a"/>
    <rect id="Rectangle_45" data-name="Rectangle 45" width="0.573" height="0.892" transform="translate(4.019 1.849)" fill="#850b5a"/>
    <rect id="Rectangle_46" data-name="Rectangle 46" width="0.573" height="0.892" transform="translate(4.911 1.849)" fill="#850b5a"/>
    <rect id="Rectangle_47" data-name="Rectangle 47" width="0.573" height="0.892" transform="translate(6.027 1.849)" fill="#850b5a"/>
  </g>
</svg>
