<svg id="Aqua8" xmlns="http://www.w3.org/2000/svg" width="17.6" height="24" viewBox="0 0 17.6 24">
  <path id="Path_101" data-name="Path 101" d="M28.4,56.8h-12a.4.4,0,1,1,0-.8h12a.4.4,0,1,1,0,.8Z" transform="translate(-13.6 -34.4)" fill="#850b5a"/>
  <path id="Path_102" data-name="Path 102" d="M25.6,26H12a.681.681,0,0,1-.28-.04h0a.361.361,0,0,1-.2-.04l-.08-.04c-.16-.04-.28-.12-.44-.16a.086.086,0,0,1-.08-.08,2.2,2.2,0,0,1-.36-.28.7.7,0,0,1-.16-.2.874.874,0,0,1-.12-.2h0A1.6,1.6,0,0,1,10,24v-.8a.4.4,0,0,1,.8,0V24a.918.918,0,0,0,.16.56.039.039,0,0,0,.04.04c.04.04.04.08.08.08q.06.12.12.12a.873.873,0,0,0,.2.16l.04.04.24.12.08.04H26c.08-.04.16-.04.24-.12a.14.14,0,0,1,.08-.04.7.7,0,0,0,.2-.16c0-.04.04-.04.08-.08s.08-.08.08-.12a.039.039,0,0,1,.04-.04,3.088,3.088,0,0,0,.08-.6V20.92l-1-1.32h-14l-1,1.32v.68a.4.4,0,1,1-.8,0v-.8a.569.569,0,0,1,.08-.24l1.2-1.6a.364.364,0,0,1,.32-.16H26a.364.364,0,0,1,.32.16l1.2,1.6a.569.569,0,0,1,.08.24V24a1.805,1.805,0,0,1-.28,1v.04a.4.4,0,0,1-.16.2.552.552,0,0,0-.12.16,1.566,1.566,0,0,1-.4.32.14.14,0,0,1-.08.04,1.2,1.2,0,0,1-.4.16l-.12.04a1.732,1.732,0,0,1-.2.04H25.6ZM11,24.8ZM21.2,6H16.4a1.179,1.179,0,0,1-1.2-1.2V2.4a.378.378,0,0,1,.4-.4h.8a.378.378,0,0,1,.4.4.378.378,0,0,1-.4.4H16v2a.378.378,0,0,0,.4.4h4.8a.378.378,0,0,0,.4-.4v-2H18a.378.378,0,0,1-.4-.4A.378.378,0,0,1,18,2h4a.378.378,0,0,1,.4.4V4.8A1.179,1.179,0,0,1,21.2,6Z" transform="translate(-10 -2)" fill="#850b5a"/>
  <path id="Path_103" data-name="Path 103" d="M28.4,39.4h-12a.4.4,0,0,1,0-.8h12a.4.4,0,0,1,0,.8ZM18.8,27.8h-.4a.4.4,0,1,1,0-.8h.4a.4.4,0,1,1,0,.8Z" transform="translate(-13.6 -17)" fill="#850b5a"/>
  <path id="Path_104" data-name="Path 104" d="M27.8,34.6H13.4a.378.378,0,0,1-.4-.4V27.4a.378.378,0,0,1,.4-.4H15a.4.4,0,0,1,0,.8H13.8v6H27.4v-6H18.6a.4.4,0,0,1,0-.8h9.2a.378.378,0,0,1,.4.4v6.8A.378.378,0,0,1,27.8,34.6Z" transform="translate(-11.8 -17)" fill="#850b5a"/>
  <path id="Path_105" data-name="Path 105" d="M26.2,32.6H20.8A1.793,1.793,0,0,1,19,30.8a1.926,1.926,0,0,1,.52-1.28A1.85,1.85,0,0,1,20.8,29h6.8a1.793,1.793,0,0,1,1.8,1.8,1.926,1.926,0,0,1-.52,1.28,2.015,2.015,0,0,1-1,.52.385.385,0,1,1-.12-.76,1.067,1.067,0,0,0,.56-.28.964.964,0,0,0,.28-.72.99.99,0,0,0-1-1H20.8a1.15,1.15,0,0,0-.72.28.964.964,0,0,0-.28.72.99.99,0,0,0,1,1h5.4a.378.378,0,0,1,.4.4C26.6,32.48,26.44,32.6,26.2,32.6Zm-5.6-4.8h-.4a.4.4,0,1,1,0-.8h.4a.4.4,0,1,1,0,.8Z" transform="translate(-15.4 -17)" fill="#850b5a"/>
  <path id="Path_106" data-name="Path 106" d="M13.2,17.6H11.6a.364.364,0,0,1-.32-.16l-1.2-1.6A.569.569,0,0,1,10,15.6V13.76a2.415,2.415,0,0,1,2.08-2.4l3.56-.48a.425.425,0,0,0,.36-.4V10.4a.378.378,0,0,1,.4-.4h4.8a.378.378,0,0,1,.4.4v.12a.425.425,0,0,0,.36.4l3.56.48a2.424,2.424,0,0,1,2.08,2.2.435.435,0,0,1-.36.44.469.469,0,0,1-.44-.36,1.617,1.617,0,0,0-1.4-1.48l-3.56-.48a1.259,1.259,0,0,1-1-.88H16.76a1.147,1.147,0,0,1-1,.88l-3.56.48a1.632,1.632,0,0,0-1.4,1.6v1.72l1,1.32h1.4a.378.378,0,0,1,.4.4C13.6,17.48,13.44,17.6,13.2,17.6Zm12.8,0H16.8a.4.4,0,0,1,0-.8h9l1-1.32V15.2a.4.4,0,1,1,.8,0v.4a.569.569,0,0,1-.08.24l-1.2,1.6A.364.364,0,0,1,26,17.6Z" transform="translate(-10 -6.8)" fill="#850b5a"/>
</svg>
