<svg id="Qatra" xmlns="http://www.w3.org/2000/svg" xmlns:xlink="http://www.w3.org/1999/xlink" width="15.332" height="24" viewBox="0 0 15.332 24">
  <defs>
    <clipPath id="clip-path">
      <rect id="Rectangle_42" data-name="Rectangle 42" width="15.332" height="24" fill="#850b5a"/>
    </clipPath>
  </defs>
  <g id="Group_69986" data-name="Group 69986" clip-path="url(#clip-path)">
    <path id="Path_94" data-name="Path 94" d="M7.942.688,8.85.72l.724.028.52.056s.492.032.444.412a1.359,1.359,0,0,0,0,.316s.121.16-.235.164l-.016.284a.365.365,0,0,0,.176.348s.211.316-.521.316H9.919a1.584,1.584,0,0,1,.064.68.714.714,0,0,0,.152.28l.648.8.356.488.408.588.484.772.408.68.4.731.3.589.34.712.376.868.224.54.288.756a2.009,2.009,0,0,1,.248.74l.036.788v3.7l-.036,1.674v.891l-.018.378a4.056,4.056,0,0,1-.774,1.8l-.117.243-.459.72-.342.513s-.18.441-.945.531l-.54.089-.441.064-.666.054-.18-.063-.207-.09-.153-.054-.135.027-.2.126-.117.054H6.767a1.31,1.31,0,0,1-.549-.324.855.855,0,0,1-.619.291l-.065,0-1.581-.082h-.01A.812.812,0,0,1,3.425,23s-.512-.02-.656-.216l-.3-.2-.616-.88-.528-.828a4.95,4.95,0,0,1-.64-2.045V14.616L.72,11.935A.476.476,0,0,1,.8,11.683a3.364,3.364,0,0,0,.408-.992A25.92,25.92,0,0,1,2.32,8.05s.7-1.384.869-1.6l.3-.5.54-.832.164-.252.156-.224.66-.8a1.022,1.022,0,0,0,.3-.588A1.19,1.19,0,0,1,5.357,2.8a.182.182,0,0,0-.2-.236.615.615,0,0,1-.1.008c-.11,0-.264-.033-.175-.232,0,0,.405-.255.033-.44-.079-.039-.174-.047-.255-.085-.031-.015-.087-.043-.1-.079a.069.069,0,0,1,.021-.068c.014-.014.044-.015.053-.034s-.015-.053-.012-.072a.236.236,0,0,1,.045-.086.483.483,0,0,0,.073-.365S4.7.86,5.169.808L5.578.76,6.122.708l.86-.02Zm0-.688H6.966l-.86.02-.049,0L5.512.075,5.5.077,5.091.125a1.169,1.169,0,0,0-.856.438.893.893,0,0,0-.172.592.825.825,0,0,0-.088.2.749.749,0,0,0,.21.968.8.8,0,0,0,.432.837c0,.028,0,.053,0,.076a.613.613,0,0,1-.091.125.47.47,0,0,0-.048.053l-.66.8q-.018.022-.034.045l-.156.224L3.617,4.5l-.164.252-.541.833L2.9,5.6l-.287.475c-.2.283-.638,1.136-.9,1.647A26.33,26.33,0,0,0,.558,10.454a.684.684,0,0,0-.041.2,3.418,3.418,0,0,1-.308.666,1.17,1.17,0,0,0-.177.609L0,14.607v4.219a5.493,5.493,0,0,0,.731,2.393l.017.028.528.828.017.025.616.88a.688.688,0,0,0,.178.175l.231.156a1.519,1.519,0,0,0,.861.36,1.555,1.555,0,0,0,.759.211l1.551.08c.037,0,.074,0,.111,0a1.469,1.469,0,0,0,.616-.138,1.994,1.994,0,0,0,.372.148A.688.688,0,0,0,6.767,24H9.315a.688.688,0,0,0,.288-.063l.117-.054a.678.678,0,0,0,.062-.033l.069.03L9.9,23.9l.18.063A.688.688,0,0,0,10.3,24l.056,0,.666-.054.043,0,.441-.064.013,0,.526-.087a1.83,1.83,0,0,0,1.447-.871l.315-.473.008-.012.459-.72a.7.7,0,0,0,.04-.071l.062-.13a4.657,4.657,0,0,0,.885-2.084.683.683,0,0,0,.011-.1l.018-.378c0-.011,0-.022,0-.033v-.884l.036-1.667s0-.01,0-.015v-3.7c0-.01,0-.021,0-.031l-.036-.779a2.481,2.481,0,0,0-.31-1.007l-.271-.712-.007-.019-.224-.54,0-.01L14.1,8.689l-.01-.023-.34-.712-.006-.012-.3-.589-.01-.019-.4-.731-.015-.026-.408-.68-.007-.012-.484-.772-.018-.027L11.7,4.5l-.009-.013L11.339,4l-.022-.029L10.692,3.2V3.19a.816.816,0,0,0,.392-.375.851.851,0,0,0,.011-.768.788.788,0,0,0,.076-.125.769.769,0,0,0,.047-.547c0-.03,0-.065,0-.1a1,1,0,0,0-.219-.745,1.256,1.256,0,0,0-.848-.415L9.648.064,9.6.061,8.877.032,7.966,0H7.942" transform="translate(0)" fill="#850b5a"/>
    <path id="Path_95" data-name="Path 95" d="M56.712,12.63a.346.346,0,0,1-.116-.02l-.193-.069H56l-.368.037a.334.334,0,0,1-.067,0l-.421-.039-.285-.033-.024,0-.244-.045-.244.045-.027,0-.335.036-.036,0H52.584l-.371.078a.344.344,0,0,1-.071.007h-.264a.336.336,0,0,1-.069-.007l-.242-.05a.344.344,0,0,1,.139-.673l.208.043h.193l.371-.078a.344.344,0,0,1,.071-.007h1.379l.3-.032.293-.055a.344.344,0,0,1,.126,0l.295.055.266.031.38.035.352-.036.035,0h.485a.344.344,0,0,1,.116.02l.175.062.37-.041a.345.345,0,0,1,.183.03l.047.018a.344.344,0,1,1,0,.688h-.086a.344.344,0,0,1-.145-.032l-.02-.009-.353.039-.038,0" transform="translate(-46.883 -10.753)" fill="#850b5a"/>
    <path id="Path_96" data-name="Path 96" d="M59.443,23.687h-.018c-.283-.014-.57-.033-.847-.051-.611-.04-1.243-.081-1.86-.077-.579,0-1.172.027-1.745.05-.335.013-.669.027-1,.036a.344.344,0,0,1-.02-.687c.332-.01.664-.023,1-.036.579-.023,1.178-.047,1.768-.05.641,0,1.286.038,1.909.079.275.018.559.037.837.051a.344.344,0,0,1-.017.687" transform="translate(-49.007 -20.904)" fill="#850b5a"/>
    <path id="Path_97" data-name="Path 97" d="M6.77,107.337a1.192,1.192,0,0,1,.918.413,4.491,4.491,0,0,0,2.21,1.283,8.856,8.856,0,0,0,.958.051,3.383,3.383,0,0,0,2.08-.5l1.341-.973.388,1a6.183,6.183,0,0,1-2.6,1.225,8.763,8.763,0,0,1-1.211.086,4.232,4.232,0,0,1-3.081-1c-.474-.511-.761-.74-1.093-.74a3.387,3.387,0,0,0-1.443.683c-1.383.856-1.7,1.068-1.7,1.068a3.793,3.793,0,0,1-1.855.717,1.247,1.247,0,0,1-.663-.174v-.742a1.913,1.913,0,0,0,.652.1,2.586,2.586,0,0,0,1.538-.529,24.7,24.7,0,0,1,2.082-1.369,2.741,2.741,0,0,1,1.477-.6m0-.688a3.329,3.329,0,0,0-1.865.716c-.208.121-1.06.627-2.1,1.384a1.908,1.908,0,0,1-1.133.4,1.366,1.366,0,0,1-.4-.055.658.658,0,0,0-.261-.054.678.678,0,0,0-.676.7v.742a.688.688,0,0,0,.328.586,1.924,1.924,0,0,0,1.022.275,4.357,4.357,0,0,0,2.249-.84c.063-.041.449-.294,1.667-1.048l.034-.021a4.389,4.389,0,0,1,1.048-.559c.018,0,.129.025.589.52a4.905,4.905,0,0,0,3.585,1.219,9.391,9.391,0,0,0,1.307-.092,6.853,6.853,0,0,0,2.939-1.375.688.688,0,0,0,.2-.78l-.388-1a.688.688,0,0,0-1.045-.307l-1.34.973a.693.693,0,0,0-.062.05,2.759,2.759,0,0,1-1.614.317,8.4,8.4,0,0,1-.844-.042A3.835,3.835,0,0,1,8.2,107.289a1.88,1.88,0,0,0-1.429-.64" transform="translate(-0.304 -97.482)" fill="#850b5a"/>
    <path id="Path_98" data-name="Path 98" d="M21.821,243.733a51.878,51.878,0,0,1-7.031-.53.344.344,0,0,1,.093-.681,40.536,40.536,0,0,0,11.935.151.344.344,0,0,1,.107.679,32.583,32.583,0,0,1-5.105.381" transform="translate(-13.248 -221.671)" fill="#850b5a"/>
  </g>
</svg>
