<svg xmlns="http://www.w3.org/2000/svg" width="30" height="30"><g fill="#850b5a"><path data-name="Path 157" d="M26.5 28V0h-23v28H0v2h30v-2zm-2 0H16v-4h-2v4H5.5V2h19z"/><path data-name="Path 158" d="M9 18h2v2H9z"/><path data-name="Path 159" d="M14 18h2v2h-2z"/><path data-name="Path 160" d="M19 18h2v2h-2z"/><path data-name="Path 161" d="M9 12h2v2H9z"/><path data-name="Path 162" d="M14 12h2v2h-2z"/><path data-name="Path 163" d="M19 12h2v2h-2z"/><path data-name="Path 164" d="M9 6h2v2H9z"/><path data-name="Path 165" d="M14 6h2v2h-2z"/><path data-name="Path 166" d="M19 6h2v2h-2z"/></g></svg>