<svg xmlns="http://www.w3.org/2000/svg" width="30.001" height="30"><defs><clipPath id="a"><path data-name="Rectangle 75" fill="#850b5a" d="M0 0h30.001v30H0z"/></clipPath></defs><g data-name="Group 70021" clip-path="url(#a)"><path data-name="Path 173" d="M27.657 28.5a.856.856 0 00.844-.844v-8.437a.856.856 0 00-.844-.844h-.844v-6.75h.844a.844.844 0 000-1.687h-.844V8.224a2.262 2.262 0 001.266-.435 1.533 1.533 0 00.421-1.226 5.758 5.758 0 00-.475-2.122 6.669 6.669 0 00-1.292-2.056 2.278 2.278 0 00-1.608-.885 2.238 2.238 0 00-1.6.884 7.023 7.023 0 00-1.288 2.056 5.606 5.606 0 00-.487 2.122 1.533 1.533 0 00.422 1.226 2.262 2.262 0 001.266.435v1.715h-.844a.844.844 0 000 1.688h.844v6.75h-1.687V15a6.531 6.531 0 00-1.423-4.14 6.644 6.644 0 00-3.639-2.4v-.21a1.645 1.645 0 00-.489-1.186 1.594 1.594 0 00-1.187-.5 1.711 1.711 0 00-1.7 1.688v.211a6.642 6.642 0 00-3.639 2.4A6.539 6.539 0 008.251 15v3.375H6.563v-6.75h.844a.844.844 0 000-1.687h-.844V8.224a2.262 2.262 0 001.266-.435 1.533 1.533 0 00.422-1.226 5.728 5.728 0 00-.474-2.123 6.683 6.683 0 00-1.293-2.056A2.278 2.278 0 004.876 1.5a2.278 2.278 0 00-1.609.884A6.683 6.683 0 001.975 4.44 5.728 5.728 0 001.5 6.563a1.533 1.533 0 00.422 1.226 2.262 2.262 0 001.266.435v1.714h-.843a.81.81 0 00-.593.25.828.828 0 000 1.187.81.81 0 00.593.25h.844v6.75h-.844a.81.81 0 00-.593.25.81.81 0 00-.251.593v8.438a.81.81 0 00.251.593.81.81 0 00.593.25zm-5.062-6.75a.856.856 0 01.844.844v1.688a.844.844 0 01-1.687 0v-1.688a.856.856 0 01.844-.844m-3.375 0a.856.856 0 01.844.844v1.688a.844.844 0 01-1.687 0v-1.688a.856.856 0 01.844-.844m-8.437 0a.856.856 0 01.844.844v1.688a.844.844 0 01-1.687 0v-1.688a.856.856 0 01.844-.844m-3.375 0a.856.856 0 01.844.844v1.688a.844.844 0 01-1.687 0v-1.688a.856.856 0 01.844-.844M27.657 30H2.345a2.3 2.3 0 01-1.654-.69A2.3 2.3 0 010 27.656v-8.437a2.3 2.3 0 01.69-1.654 2.321 2.321 0 011-.6v-3.931a2.321 2.321 0 01-1-.6 2.327 2.327 0 010-3.307 2.45 2.45 0 01.241-.212A2.954 2.954 0 010 6.563a7.226 7.226 0 01.584-2.685 8.22 8.22 0 011.582-2.513A3.7 3.7 0 014.876 0a3.7 3.7 0 012.71 1.365 8.22 8.22 0 011.581 2.513 7.226 7.226 0 01.584 2.685 2.954 2.954 0 01-.931 2.352 2.45 2.45 0 01.241.212c.025.025.05.05.073.076a8.035 8.035 0 012.813-1.872A3.17 3.17 0 0112.754 6a3.136 3.136 0 012.26-.94 3.088 3.088 0 012.261.955 3.182 3.182 0 01.781 1.316A8.036 8.036 0 0120.868 9.2l.073-.076a2.45 2.45 0 01.241-.212 2.954 2.954 0 01-.931-2.353 7.1 7.1 0 01.6-2.7 8.573 8.573 0 011.569-2.486A3.659 3.659 0 0125.125 0a3.7 3.7 0 012.709 1.364 8.178 8.178 0 011.583 2.514A7.245 7.245 0 0130 6.561a2.955 2.955 0 01-.932 2.354 2.45 2.45 0 01.241.212 2.327 2.327 0 010 3.307 2.321 2.321 0 01-1 .6v3.933a2.324 2.324 0 011 .6A2.3 2.3 0 0130 19.219v8.438A2.356 2.356 0 0127.657 30" fill="#850b5a"/></g></svg>