<svg xmlns="http://www.w3.org/2000/svg" width="28.125" height="30"><g fill="#850b5a"><path data-name="Path 167" d="M27.681.141a.937.937 0 01.444.8v28.121a.937.937 0 01-.937.937h-5.626a.937.937 0 01-.937-.937V26.25H18.75v2.812a.937.937 0 01-.937.937H.937A.937.937 0 010 29.062V18.75a.937.937 0 01.642-.889l10.608-3.536V8.437a.938.938 0 01.518-.838l15-7.5a.937.937 0 01.913.041zM11.25 16.3l-9.375 3.125v8.7h9.375zm1.875 11.823h3.75v-2.811a.937.937 0 01.937-.937h3.75a.937.937 0 01.937.937v2.812h3.75V2.454L13.125 9.017z" fill-rule="evenodd"/><path data-name="Path 168" d="M3.75 20.625h1.875V22.5H3.75zm3.75 0h1.875V22.5H7.5zm-3.75 3.75h1.875v1.875H3.75zm3.75 0h1.875v1.875H7.5zm7.5-7.5h1.875v1.875H15zm3.75 0h1.875v1.875H18.75zM15 20.625h1.875V22.5H15zm3.75 0h1.875V22.5H18.75zm3.75-3.75h1.875v1.875H22.5zm0 3.75h1.875V22.5H22.5zm-7.5-7.5h1.875V15H15zm3.75 0h1.875V15H18.75zm3.75 0h1.875V15H22.5zM15 9.375h1.875v1.875H15zm3.75 0h1.875v1.875H18.75zm3.75 0h1.875v1.875H22.5zm0-3.75h1.875V7.5H22.5z"/></g></svg>